<svg width="36" height="36" viewBox="0 0 36 36" fill="none" xmlns="http://www.w3.org/2000/svg">
<circle cx="18" cy="18" r="18" fill="#80DA49"/>
<mask id="path-2-outside-1" maskUnits="userSpaceOnUse" x="10" y="9" width="16" height="17" fill="black">
<rect fill="white" x="10" y="9" width="16" height="17"/>
<path fill-rule="evenodd" clip-rule="evenodd" d="M22.3255 10.0632C22.2427 10.022 22.1514 10 22.0582 10L11.6169 10.0001M22.3255 10.0632L24.6518 10.9544L24.6634 10.9606C24.8741 11.072 25 11.2951 25 11.5312V23.3734C25 23.6094 24.8741 23.8325 24.6634 23.944L24.6518 23.9501L22.3253 24.8412C22.2438 24.8816 22.1488 24.9044 22.0582 24.9044H11.6169C11.2646 24.9044 11 24.6058 11 24.2639V10.6406C11 10.2987 11.2646 10.0001 11.6169 10.0001M21.8796 16.0311L23.9837 15.2575V11.7925L21.9639 11.0634L12.0163 11.0635V23.841L21.6588 23.841V16.4094C21.6588 16.2492 21.7443 16.1028 21.8796 16.0311ZM23.9837 23.112V20.07L22.4575 20.5376V23.5796L23.9837 23.112ZM23.9837 19.1243V16.0823L22.4575 16.5499V19.5919L23.9837 19.1243Z"/>
</mask>
<path fill-rule="evenodd" clip-rule="evenodd" d="M22.3255 10.0632C22.2427 10.022 22.1514 10 22.0582 10L11.6169 10.0001M22.3255 10.0632L24.6518 10.9544L24.6634 10.9606C24.8741 11.072 25 11.2951 25 11.5312V23.3734C25 23.6094 24.8741 23.8325 24.6634 23.944L24.6518 23.9501L22.3253 24.8412C22.2438 24.8816 22.1488 24.9044 22.0582 24.9044H11.6169C11.2646 24.9044 11 24.6058 11 24.2639V10.6406C11 10.2987 11.2646 10.0001 11.6169 10.0001M21.8796 16.0311L23.9837 15.2575V11.7925L21.9639 11.0634L12.0163 11.0635V23.841L21.6588 23.841V16.4094C21.6588 16.2492 21.7443 16.1028 21.8796 16.0311ZM23.9837 23.112V20.07L22.4575 20.5376V23.5796L23.9837 23.112ZM23.9837 19.1243V16.0823L22.4575 16.5499V19.5919L23.9837 19.1243Z" fill="white"/>
<path fill-rule="evenodd" clip-rule="evenodd" d="M22.3255 10.0632C22.2427 10.022 22.1514 10 22.0582 10L11.6169 10.0001M22.3255 10.0632L24.6518 10.9544L24.6634 10.9606C24.8741 11.072 25 11.2951 25 11.5312V23.3734C25 23.6094 24.8741 23.8325 24.6634 23.944L24.6518 23.9501L22.3253 24.8412C22.2438 24.8816 22.1488 24.9044 22.0582 24.9044H11.6169C11.2646 24.9044 11 24.6058 11 24.2639V10.6406C11 10.2987 11.2646 10.0001 11.6169 10.0001M21.8796 16.0311L23.9837 15.2575V11.7925L21.9639 11.0634L12.0163 11.0635V23.841L21.6588 23.841V16.4094C21.6588 16.2492 21.7443 16.1028 21.8796 16.0311ZM23.9837 23.112V20.07L22.4575 20.5376V23.5796L23.9837 23.112ZM23.9837 19.1243V16.0823L22.4575 16.5499V19.5919L23.9837 19.1243Z" stroke="white" stroke-width="0.481141" mask="url(#path-2-outside-1)"/>
</svg>
