<?xml version="1.0" standalone="no"?><!-- Generator: Gravit.io --><svg xmlns="http://www.w3.org/2000/svg" xmlns:xlink="http://www.w3.org/1999/xlink" style="isolation:isolate" viewBox="0 -0.062 16 16.062" width="16" height="16.062"><path d=" M 14.1 10.5 C 15.3 5.8 15.6 3.8 12.9 1.6 C 12 0.8 12.7 0.3 11.8 0 C 10.9 -0.3 11.2 0.6 10 0.5 C 6.7 0.5 5.7 2.2 3.6 6.6 C 2.7 8.5 1.3 7.4 0.6 9.3 C 0.1 10.7 2.6 13.6 6.5 15 C 10.4 16.5 14.1 15.9 14.6 14.5 C 15.4 12.6 13.6 12.5 14.1 10.5 Z  M 11.4 14.4 C 10.1 14.4 8.6 14.1 7.1 13.5 C 5.4 12.9 3.9 12 3 11 C 2.2 10.2 2.1 9.7 2.1 9.6 C 2.1 9.5 2.6 9.1 4.1 9.1 C 5.4 9.1 6.9 9.4 8.4 10 C 12.1 11.4 13.6 13.4 13.4 13.9 C 13.4 14 12.9 14.4 11.4 14.4 Z  M 7.1 10.6 C 7.1 10.6 7.1 10.6 7.1 10.6 C 6.8 11.6 7.6 12.7 9 13.3 C 10.1 13.7 11.2 13.6 11.7 13 C 10.9 12.3 9.6 11.5 7.8 10.8 C 7.6 10.8 7.3 10.7 7.1 10.6 Z " fill="rgb(255,255,255)"/></svg>