<svg width="36" height="36" viewBox="0 0 36 36" fill="none" xmlns="http://www.w3.org/2000/svg">
<circle cx="18" cy="18" r="18" fill="#F46338"/>
<path d="M19.353 22.0922H16.8915C16.5515 22.0922 16.2761 22.3676 16.2761 22.7075V25.169C16.2761 25.509 16.5515 25.7844 16.8915 25.7844H19.353C19.6929 25.7844 19.9684 25.509 19.9684 25.169V22.7075C19.9684 22.3676 19.6929 22.0922 19.353 22.0922ZM18.7376 24.5537H17.5069V23.3229H18.7376V24.5537Z" fill="white"/>
<path d="M18.312 9.78831C16.9589 9.73539 15.6807 10.2247 14.7076 11.1611C13.7351 12.0977 13.1992 13.3575 13.1992 14.7076C13.1992 15.0476 13.4747 15.323 13.8146 15.323H16.2761C16.616 15.323 16.8915 15.0476 16.8915 14.7076C16.8915 14.3699 17.0254 14.0551 17.2688 13.8208C17.5135 13.5852 17.8367 13.4638 18.1722 13.4779C18.7883 13.5013 19.3286 14.0416 19.3523 14.6577C19.369 15.103 19.1546 15.5108 18.7785 15.7493C17.2117 16.7426 16.2761 18.3989 16.2761 20.1801V20.246C16.2761 20.586 16.5515 20.8614 16.8915 20.8614H19.353C19.6929 20.8614 19.9684 20.586 19.9684 20.246V20.1801C19.9684 19.6708 20.2623 19.18 20.7548 18.8678C22.2315 17.9322 23.108 16.2653 23.0416 14.5174C22.9446 11.9626 20.8668 9.88529 18.312 9.78831ZM20.0961 17.8283C19.415 18.2598 18.9537 18.9097 18.7969 19.6307H17.5467C17.7131 18.4863 18.3935 17.4505 19.4377 16.7888C20.1882 16.3133 20.616 15.4993 20.5823 14.6109C20.5345 13.3555 19.4743 12.2956 18.2219 12.2481C17.5507 12.2186 16.9048 12.463 16.4152 12.9341C16.0807 13.2563 15.8493 13.6548 15.7375 14.0923H14.4807C14.6094 13.3161 14.9823 12.6055 15.5618 12.0475C16.2916 11.3452 17.2521 10.9807 18.2657 11.0178C20.1813 11.0904 21.7389 12.6483 21.812 14.5641C21.8613 15.8756 21.2043 17.1263 20.0961 17.8283Z" fill="white"/>
</svg>
