<svg width="36" height="36" viewBox="0 0 36 36" fill="none" xmlns="http://www.w3.org/2000/svg">
<circle cx="18" cy="18" r="18" fill="#FD4470"/>
<path fill-rule="evenodd" clip-rule="evenodd" d="M12.2012 12.2013C13.7397 10.6639 15.8247 9.80005 17.9998 9.80005C20.1749 9.80005 22.26 10.6639 23.7984 12.2013C25.3359 13.7398 26.1998 15.825 26.1998 18C26.1998 20.1751 25.336 22.2602 23.7985 23.7987C22.26 25.3361 20.1749 26.2001 17.9998 26.2001C15.8248 26.2001 13.7396 25.3362 12.2012 23.7987C10.6637 22.2603 9.7998 20.1751 9.7998 18C9.7998 15.825 10.6637 13.7398 12.2012 12.2013ZM23.4532 22.3812C24.3047 21.3273 24.8295 20.0483 24.9633 18.7C24.9699 18.6335 24.9756 18.5669 24.9803 18.5H21.9198C21.8963 19.4435 21.786 20.3819 21.5897 21.3048C22.1624 21.6031 22.6957 21.9704 23.1774 22.4001C23.2272 22.4445 23.2763 22.4895 23.3249 22.5351C23.3684 22.4844 23.4112 22.4331 23.4532 22.3812ZM11.0193 18.5001C11.024 18.5667 11.0296 18.6337 11.0362 18.7C11.1701 20.0483 11.6948 21.3275 12.5464 22.3812C12.5883 22.4331 12.631 22.4845 12.6745 22.5352C12.7232 22.4895 12.7724 22.4445 12.8221 22.4001C13.3038 21.9704 13.8372 21.6031 14.4099 21.3048C14.2136 20.3818 14.1033 19.4434 14.0798 18.5L11.0193 18.5001ZM12.5465 13.6188C11.6949 14.6727 11.1702 15.9517 11.0363 17.3C11.0297 17.3665 11.0241 17.4332 11.0194 17.5H14.0799C14.1033 16.5566 14.2137 15.6181 14.4099 14.6953C13.8373 14.397 13.3039 14.0297 12.8222 13.5999C12.7725 13.5556 12.7233 13.5106 12.6747 13.4649C12.6312 13.5157 12.5884 13.5669 12.5465 13.6188ZM20.3607 13.9561C19.7866 12.116 18.8633 10.9999 17.9997 10.9999C17.1101 10.9999 16.157 12.1845 15.5993 14.1249C17.0877 14.6877 18.7236 14.7118 20.2245 14.197C20.2872 14.1755 20.3496 14.1531 20.4118 14.1297C20.4161 14.1281 20.4203 14.1265 20.4246 14.1249H20.4118C20.3951 14.068 20.3781 14.0117 20.3607 13.9561ZM20.2224 11.3622C20.2257 11.367 20.229 11.3718 20.2323 11.3766L20.2338 11.3788L20.2351 11.3807C20.2961 11.4696 20.3553 11.5597 20.4126 11.6508C20.7755 12.2279 21.0637 12.8491 21.2702 13.499C21.2909 13.5642 21.3108 13.6296 21.3298 13.6952C21.3897 13.6614 21.449 13.6268 21.5078 13.5912C21.85 13.3842 22.1736 13.1477 22.4749 12.8846C22.5255 12.8405 22.5755 12.7956 22.6248 12.7499C22.5742 12.7057 22.523 12.6622 22.4713 12.6194C21.8936 12.1421 21.2434 11.7599 20.5461 11.4879C20.4435 11.4478 20.3398 11.4102 20.2351 11.3749L20.2224 11.3622ZM14.7291 13.5009C14.7085 13.566 14.6887 13.6315 14.6697 13.6972C14.6098 13.6634 14.5505 13.6287 14.4917 13.5931C14.1494 13.3858 13.8257 13.1486 13.5243 12.8847C13.4738 12.8405 13.424 12.7956 13.3747 12.7499C13.4251 12.7055 13.476 12.6618 13.5276 12.6188C14.1064 12.1367 14.7592 11.7507 15.46 11.4759C15.5646 11.4349 15.6704 11.3963 15.7771 11.3603C15.7139 11.4519 15.6527 11.5447 15.5935 11.6387C15.2275 12.2197 14.9369 12.8454 14.7291 13.5009ZM14.6696 22.3027C14.6098 22.3364 14.5505 22.3712 14.4917 22.4067C14.1494 22.614 13.8258 22.8512 13.5243 23.1151C13.4738 23.1593 13.424 23.2042 13.3747 23.2499C13.4252 23.2943 13.4762 23.3379 13.5278 23.3808C14.1071 23.8621 14.7594 24.2473 15.46 24.522C15.5646 24.563 15.6704 24.6016 15.7771 24.6376C15.7139 24.546 15.6527 24.4531 15.5934 24.3591C15.2275 23.7785 14.937 23.1535 14.7292 22.4989C14.7085 22.4338 14.6886 22.3684 14.6696 22.3027ZM15.5879 21.8755C16.1572 23.8156 17.1102 24.9999 17.9998 24.9999C18.8894 24.9999 19.8425 23.8154 20.4119 21.8749C18.9197 21.3107 17.2801 21.288 15.7761 21.8068C15.7131 21.8286 15.6504 21.8519 15.5879 21.8755ZM15.0799 17.4999H20.9198C20.9179 17.4332 20.9156 17.3666 20.9128 17.2999C20.885 16.6291 20.8109 15.9614 20.6901 15.3014C20.6779 15.235 20.6653 15.1687 20.6522 15.1025C20.5888 15.1254 20.5252 15.1475 20.4614 15.1687C18.8635 15.7005 17.1361 15.7005 15.5383 15.1687C15.4745 15.1475 15.4109 15.1254 15.3475 15.1025C15.3344 15.1687 15.3218 15.235 15.3096 15.3014C15.1888 15.9614 15.1147 16.6291 15.0869 17.2999C15.0841 17.3666 15.0818 17.4332 15.0799 17.4999ZM15.0798 18.4999C15.0816 18.5666 15.0839 18.6333 15.0867 18.6999C15.1146 19.3708 15.1887 20.0385 15.3095 20.6985C15.3216 20.7649 15.3342 20.8312 15.3473 20.8974C15.4107 20.8745 15.4744 20.8525 15.5382 20.8314C17.1361 20.3022 18.8634 20.3022 20.4612 20.8314C20.525 20.8525 20.5887 20.8745 20.6521 20.8974C20.6652 20.8312 20.6778 20.7649 20.6899 20.6985C20.8107 20.0385 20.8848 19.3708 20.9127 18.6999C20.9155 18.6333 20.9178 18.5666 20.9196 18.4999H15.0798ZM21.3216 22.3307C21.3055 22.3858 21.2888 22.4406 21.2715 22.4953C21.0636 23.1521 20.7727 23.7791 20.406 24.3611C20.3467 24.4551 20.2855 24.548 20.2224 24.6396C20.3291 24.6035 20.4348 24.565 20.5395 24.5239C21.2402 24.2491 21.8931 23.8631 22.4719 23.3809C22.5235 23.338 22.5744 23.2944 22.6247 23.2499C22.5757 23.2041 22.526 23.159 22.4757 23.1147C22.1747 22.8496 21.8509 22.6119 21.5087 22.4035C21.4548 22.3707 21.4004 22.3386 21.3456 22.3072C21.343 22.3057 21.3403 22.3042 21.3376 22.3027H21.3298C21.3271 22.312 21.3244 22.3213 21.3216 22.3307ZM21.5896 14.6952C21.7858 15.6181 21.8962 16.5566 21.9196 17.4999L24.9802 17.4999C24.9755 17.4331 24.9698 17.3665 24.9632 17.3C24.8294 15.9517 24.3046 14.6725 23.4531 13.6187C23.4111 13.5668 23.3684 13.5155 23.3249 13.4647C23.2763 13.5104 23.2271 13.5555 23.1773 13.5999C22.6956 14.0296 22.1622 14.3969 21.5896 14.6952Z" fill="white"/>
</svg>
