<svg width="36" height="36" viewBox="0 0 36 36" fill="none" xmlns="http://www.w3.org/2000/svg">
<circle cx="18" cy="18" r="18" fill="#FF8686"/>
<path d="M26.9934 13.51L26.9934 13.5099L23.8169 8.21582L23.8169 8.21581C23.7067 8.03222 23.5082 7.91981 23.2941 7.91981H12.7059C12.4918 7.91981 12.2933 8.03222 12.1831 8.21581L12.1831 8.21582L9.00663 13.5099L9.00658 13.51C8.95215 13.601 8.91981 13.7175 8.91981 13.8235V24.4118C8.91981 24.7485 9.19268 25.0214 9.52941 25.0214H26.4706C26.8073 25.0214 27.0802 24.7485 27.0802 24.4118V13.8235C27.0802 13.7175 27.0478 13.601 26.9934 13.51ZM18.6096 9.13901H22.9489L25.3938 13.2139H18.6096V9.13901ZM10.6062 13.2139L13.0511 9.13901H17.3904V13.2139H10.6062ZM10.139 14.4331H25.861V23.8022H10.139V14.4331Z" fill="white" stroke="white" stroke-width="0.16038"/>
</svg>
