<svg width="72" height="36" viewBox="0 0 72 36" fill="none" xmlns="http://www.w3.org/2000/svg">
<path d="M36 18C36 8.05887 44.0589 0 54 0V0C63.9411 0 72 8.05887 72 18V18C72 27.9411 63.9411 36 54 36V36C44.0589 36 36 27.9411 36 18V18Z" fill="#1E5EB2"/>
<path d="M49.2428 18.2998L55.3472 24.3109L55.3483 24.312C55.734 24.6965 56.3574 24.6961 56.7426 24.3109L57.1107 23.9428C57.4963 23.5572 57.4963 22.933 57.1107 22.5473L57.1083 22.5449L52.0697 17.6L57.1055 12.6529C57.4911 12.2672 57.4911 11.643 57.1055 11.2574L56.7374 10.8893C56.3522 10.5041 55.7288 10.5037 55.3431 10.8882L55.342 10.8893L49.2328 16.9051C48.8556 17.2905 48.8556 17.9126 49.2408 18.2978L49.2428 18.2998Z" fill="#F0F6FE"/>
<path d="M0 18C0 8.05887 8.05887 0 18 0V0C27.9411 0 36 8.05887 36 18V18C36 27.9411 27.9411 36 18 36V36C8.05887 36 0 27.9411 0 18V18Z" fill="#2A84F9"/>
<path d="M13.2428 18.2998L19.3472 24.3109L19.3483 24.312C19.734 24.6965 20.3574 24.6961 20.7426 24.3109L21.1107 23.9428C21.4963 23.5572 21.4963 22.933 21.1107 22.5473L21.1083 22.5449L16.0697 17.6L21.1055 12.6529C21.4911 12.2672 21.4911 11.643 21.1055 11.2574L20.7374 10.8893C20.3522 10.5041 19.7288 10.5037 19.3431 10.8882L19.342 10.8893L13.2328 16.9051C12.8556 17.2905 12.8556 17.9126 13.2408 18.2978L13.2428 18.2998Z" fill="white"/>
</svg>
