<svg width="36" height="36" viewBox="0 0 36 36" fill="none" xmlns="http://www.w3.org/2000/svg">
<path d="M36 18C36 8.05887 27.9411 0 18 0V0C8.05887 0 0 8.05887 0 18V18C0 27.9411 8.05887 36 18 36V36C27.9411 36 36 27.9411 36 18V18Z" fill="#2A84F9"/>
<path d="M22.7572 18.2998L16.6528 24.3109L16.6517 24.312C16.266 24.6965 15.6426 24.6961 15.2574 24.3109L14.8893 23.9428C14.5037 23.5572 14.5037 22.933 14.8893 22.5473L14.8917 22.5449L19.9303 17.6L14.8945 12.6529C14.5089 12.2672 14.5089 11.643 14.8945 11.2574L15.2626 10.8893C15.6478 10.5041 16.2712 10.5037 16.6569 10.8882L16.658 10.8893L22.7672 16.9051C23.1444 17.2905 23.1444 17.9126 22.7592 18.2978L22.7572 18.2998Z" fill="white"/>
</svg>
