<svg width="15" height="15" viewBox="0 0 15 15" fill="none" xmlns="http://www.w3.org/2000/svg">
<path d="M14.7053 2.35864C14.9853 2.07864 14.9853 1.62466 14.7053 1.34466L13.6551 0.294478C13.3751 0.0144773 12.9211 0.0144771 12.6411 0.294478L7.91529 5.02031L3.18944 0.294473C2.90944 0.0144723 2.45547 0.0144726 2.17547 0.294473L1.12528 1.34466C0.845283 1.62466 0.845283 2.07863 1.12528 2.35863L5.85113 7.08447L1.12529 11.8103C0.845284 12.0903 0.845285 12.5443 1.12529 12.8243L2.17547 13.8745C2.45547 14.1545 2.90944 14.1545 3.18944 13.8745L7.91529 9.14863L12.6411 13.8745C12.9211 14.1545 13.3751 14.1545 13.6551 13.8745L14.7053 12.8243C14.9853 12.5443 14.9853 12.0903 14.7053 11.8103L9.97944 7.08447L14.7053 2.35864Z" fill="white"/>
</svg>
