<svg width="36" height="36" viewBox="0 0 36 36" fill="none" xmlns="http://www.w3.org/2000/svg">
<circle cx="18" cy="18" r="18" fill="#6DB098"/>
<path fill-rule="evenodd" clip-rule="evenodd" d="M26.4846 13.1321C26.7937 13.2869 27 13.6198 27 13.9663V22.0336C27 22.3867 26.8005 22.7099 26.4844 22.8678L18.4176 26.9012C18.286 26.9672 18.1426 26.9999 18 26.9999C17.8574 26.9999 17.714 26.9672 17.5824 26.9012L9.51579 22.8679C9.19964 22.71 9 22.3867 9 22.0336V13.9663C9 13.6205 9.20591 13.2868 9.51569 13.132L17.5827 9.09854C17.8451 8.96722 18.1548 8.96711 18.4172 9.0985L26.4846 13.1321ZM18 10.4964L15.0938 11.9495L18 13.4026L20.9062 11.9495L18 10.4964ZM13.4622 16.2947L10.437 14.7821V21.722L13.4622 23.2346V16.2947ZM13.9664 12.5132L16.8724 13.9663L13.9664 15.4194L11.0602 13.9663L13.9664 12.5132ZM17.4958 18.3115L14.4706 16.7989V23.7388L17.4958 25.2514V18.3115ZM20.9062 15.9831L18 14.53L15.0938 15.9831L18 17.4363L20.9062 15.9831ZM21.5294 23.7388V16.7989L18.5042 18.3115V25.2514L21.5294 23.7388ZM22.0336 12.5132L24.9398 13.9663L22.0336 15.4194L19.1276 13.9663L22.0336 12.5132ZM25.563 21.722V14.7821L22.5378 16.2947V23.2346L25.563 21.722Z" fill="white"/>
</svg>
