<svg width="37" height="37" viewBox="0 0 37 37" fill="none" xmlns="http://www.w3.org/2000/svg">
<path fill-rule="evenodd" clip-rule="evenodd" d="M18.5625 36.7C28.5036 36.7 36.5625 28.6411 36.5625 18.7C36.5625 8.75883 28.5036 0.699951 18.5625 0.699951C8.62137 0.699951 0.5625 8.75883 0.5625 18.7C0.5625 28.6411 8.62137 36.7 18.5625 36.7ZM12.3621 10.7C11.9205 10.7 11.5625 11.058 11.5625 11.4996V26.0095C11.5625 26.4511 11.9205 26.8091 12.3621 26.8091H24.9629C25.4045 26.8091 25.7625 26.4511 25.7625 26.0095V20.5941L29.4269 16.93C29.895 16.4621 29.895 15.7008 29.4269 15.2328L28.6341 14.4401C28.1664 13.9724 27.4052 13.9719 26.937 14.4401L25.7625 15.6145V14.5543C25.7625 14.3422 25.6783 14.1388 25.5283 13.9889L22.4736 10.9342C22.3236 10.7842 22.1202 10.7 21.9081 10.7H12.3621ZM24.1632 17.2136V16.1176H21.1445C20.7028 16.1176 20.3448 15.7596 20.3448 15.318V12.2992H13.1618V25.2099H24.1632V22.1933L22.8571 23.4993C22.7676 23.5889 22.6551 23.6527 22.5321 23.6835L20.532 24.1835C20.4756 24.1975 20.4186 24.2043 20.3623 24.2043C20.1788 24.2043 20.0001 24.132 19.8672 23.9991C19.6934 23.8253 19.6234 23.573 19.683 23.3344L20.0291 21.95H16.1621C15.886 21.95 15.6621 21.7261 15.6621 21.45C15.6621 21.1738 15.886 20.95 16.1621 20.95H20.4266L24.1632 17.2136ZM24.1023 14.6452L21.8172 12.3601V14.6452H24.1023ZM15.6621 17.45C15.6621 17.1738 15.886 16.95 16.1621 16.95H21.1621C21.4383 16.95 21.6621 17.1738 21.6621 17.45C21.6621 17.7261 21.4383 17.95 21.1621 17.95H16.1621C15.886 17.95 15.6621 17.7261 15.6621 17.45ZM16.1621 18.95C15.886 18.95 15.6621 19.1738 15.6621 19.45C15.6621 19.7261 15.886 19.95 16.1621 19.95H21.1621C21.4383 19.95 21.6621 19.7261 21.6621 19.45C21.6621 19.1738 21.4383 18.95 21.1621 18.95H16.1621ZM27.0884 17.2885L22.0045 22.3721L21.3244 22.5422L21.4945 21.8621L26.5784 16.7785L27.0884 17.2885ZM28.5785 16.0815L28.0784 16.5815L27.2856 15.7885L27.7856 15.2885L28.5785 16.0815Z" fill="#AC2FB7"/>
</svg>
