<svg width="36" height="36" viewBox="0 0 36 36" fill="none" xmlns="http://www.w3.org/2000/svg">
<circle cx="18" cy="18" r="18" fill="#F01E04"/>
<path d="M27.3333 10H8.66667C8.2984 10 8 10.2927 8 10.6538V23.0769C8 23.4381 8.2984 23.7308 8.66667 23.7308H15.6667V25.6923H13C12.6317 25.6923 12.3333 25.985 12.3333 26.3462C12.3333 26.7073 12.6317 27 13 27H23C23.3683 27 23.6667 26.7073 23.6667 26.3462C23.6667 25.985 23.3683 25.6923 23 25.6923H20.3333V23.7308H27.3333C27.7016 23.7308 28 23.4381 28 23.0769V10.6538C28 10.2927 27.7016 10 27.3333 10ZM19 25.6923H17V23.7308H19V25.6923ZM26.6667 22.4231H9.33333V11.3077H26.6667V22.4231Z" fill="white"/>
<path d="M13.5 15H22.5M13.5 17H22.5M13.5 19H22.5M13.5 21H22.5" stroke="white" stroke-linecap="round"/>
</svg>
