<svg width="37" height="37" viewBox="0 0 37 37" fill="none" xmlns="http://www.w3.org/2000/svg">
<path fill-rule="evenodd" clip-rule="evenodd" d="M18.5625 36.2605C28.5036 36.2605 36.5625 28.2016 36.5625 18.2605C36.5625 8.31937 28.5036 0.260498 18.5625 0.260498C8.62137 0.260498 0.5625 8.31937 0.5625 18.2605C0.5625 28.2016 8.62137 36.2605 18.5625 36.2605ZM12.3621 10.2605C11.9205 10.2605 11.5625 10.6185 11.5625 11.0601V25.57C11.5625 26.0117 11.9205 26.3697 12.3621 26.3697H24.9629C25.4045 26.3697 25.7625 26.0117 25.7625 25.57V14.1149C25.7625 13.9028 25.6783 13.6994 25.5283 13.5494L22.4736 10.4947C22.3236 10.3447 22.1202 10.2605 21.9081 10.2605H12.3621ZM13.1618 24.7704V11.8598H20.3448V14.8785C20.3448 15.3202 20.7028 15.6782 21.1445 15.6782H24.1632V24.7704H13.1618ZM21.8172 11.9207L24.1023 14.2058H21.8172V11.9207ZM21.5438 18.7632C21.8214 18.4941 21.8284 18.051 21.5593 17.7734C21.2903 17.4957 20.8471 17.4888 20.5695 17.7578L18.0265 20.2221L17.3262 19.5402C17.0492 19.2705 16.6061 19.2764 16.3364 19.5534C16.0667 19.8304 16.0726 20.2736 16.3496 20.5433L17.5371 21.6995C17.8084 21.9637 18.2406 21.9642 18.5125 21.7007L21.5438 18.7632Z" fill="#1BA8D5"/>
</svg>
