<svg width="36" height="36" viewBox="0 0 36 36" fill="none" xmlns="http://www.w3.org/2000/svg">
<circle cx="18" cy="18" r="18" fill="#B30C8E"/>
<path d="M18.312 11.5944L26.5616 19.8439C26.6592 19.9416 26.6592 20.0999 26.5616 20.1975L20.1976 26.5615C20.1 26.6591 19.9417 26.6591 19.844 26.5615L11.5945 18.3119C11.5562 18.2736 11.5314 18.224 11.5237 18.1705L10.9345 14.0457C10.9234 13.9678 10.9496 13.8892 11.0052 13.8335L13.8336 11.0051C13.8893 10.9495 13.9679 10.9233 14.0458 10.9344L18.1706 11.5237C18.2241 11.5313 18.2737 11.5561 18.312 11.5944Z" stroke="white" stroke-width="1.5" stroke-linejoin="round"/>
<path fill-rule="evenodd" clip-rule="evenodd" d="M15.0551 13.5824C15.4497 13.5828 15.8281 13.7397 16.1072 14.0188C16.3862 14.2978 16.5432 14.6762 16.5436 15.0708C16.5436 15.3652 16.4563 15.6531 16.2927 15.8978C16.1292 16.1426 15.8967 16.3334 15.6247 16.446C15.3528 16.5587 15.0535 16.5882 14.7648 16.5308C14.476 16.4733 14.2108 16.3316 14.0026 16.1234C13.7945 15.9153 13.6527 15.6501 13.5953 15.3613C13.5378 15.0726 13.5673 14.7733 13.6799 14.5014C13.7926 14.2294 13.9833 13.9969 14.2281 13.8333C14.4729 13.6698 14.7607 13.5825 15.0551 13.5824ZM15.0549 15.6349C15.2045 15.6348 15.3479 15.5753 15.4537 15.4695C15.5595 15.3638 15.619 15.2204 15.6191 15.0708C15.6191 14.9592 15.5861 14.8503 15.5241 14.7575C15.4621 14.6648 15.374 14.5925 15.271 14.5498C15.1679 14.5071 15.0545 14.4959 14.9451 14.5177C14.8357 14.5394 14.7352 14.5932 14.6563 14.672C14.5774 14.7509 14.5237 14.8514 14.5019 14.9608C14.4801 15.0702 14.4913 15.1836 14.534 15.2867C14.5767 15.3897 14.6489 15.4778 14.7417 15.5398C14.8344 15.6018 14.9434 15.6349 15.0549 15.6349Z" fill="white"/>
</svg>
