<svg width="36" height="36" viewBox="0 0 36 36" fill="none" xmlns="http://www.w3.org/2000/svg">
<circle cx="18" cy="18" r="18" fill="#9D74F5"/>
<path d="M9.91981 11.6891V24.5966C9.91981 25.0723 10.1918 25.482 10.6423 25.8253C11.0926 26.1684 11.7301 26.4528 12.4861 26.68C13.999 27.1345 16.0073 27.3659 18 27.3659C19.9927 27.3659 22.001 27.1345 23.5139 26.68C24.2699 26.4528 24.9074 26.1684 25.3577 25.8253C25.8082 25.482 26.0802 25.0723 26.0802 24.5966V11.6891C26.0802 11.2134 25.8082 10.8037 25.3577 10.4604C24.9074 10.1173 24.2699 9.83288 23.5139 9.60574C22.001 9.15119 19.9927 8.91981 18 8.91981C16.0073 8.91981 13.999 9.15119 12.4861 9.60574C11.7301 9.83288 11.0926 10.1173 10.6423 10.4604C10.1918 10.8037 9.91981 11.2134 9.91981 11.6891ZM24.777 20.2941C24.777 20.3349 24.7527 20.3944 24.6791 20.4713C24.6068 20.5468 24.4956 20.6298 24.344 20.7167C24.0412 20.8902 23.5897 21.0719 23.002 21.237C21.8276 21.567 20.1207 21.8274 18 21.8274C15.8793 21.8274 14.1724 21.567 12.998 21.237C12.4103 21.0719 11.9588 20.8902 11.656 20.7167C11.5044 20.6298 11.3932 20.5468 11.3209 20.4713C11.2473 20.3944 11.223 20.3349 11.223 20.2941V17.5793C11.9632 17.9612 12.9699 18.2507 14.1065 18.4476C15.3063 18.6554 16.6561 18.7609 18 18.7609C19.3439 18.7609 20.6937 18.6555 21.8935 18.4477C23.0301 18.2508 24.0368 17.9613 24.777 17.5793V20.2941ZM24.777 15.9916C24.777 16.0324 24.7527 16.0919 24.6791 16.1688C24.6068 16.2443 24.4956 16.3273 24.344 16.4142C24.0412 16.5877 23.5897 16.7694 23.002 16.9345C21.8276 17.2644 20.1207 17.5249 18 17.5249C15.8793 17.5249 14.1724 17.2644 12.998 16.9345C12.4103 16.7694 11.9588 16.5877 11.656 16.4142C11.5044 16.3273 11.3932 16.2443 11.3209 16.1688C11.2473 16.0919 11.223 16.0324 11.223 15.9916V13.2768C11.9632 13.6587 12.9699 13.9482 14.1065 14.1451C15.3063 14.3529 16.6561 14.4583 18 14.4583C19.3439 14.4583 20.6937 14.353 21.8935 14.1452C23.0301 13.9483 24.0368 13.6588 24.777 13.2768V15.9916ZM18 26.1299C15.8793 26.1299 14.1724 25.8695 12.998 25.5395C12.4103 25.3744 11.9588 25.1927 11.656 25.0192C11.5044 24.9323 11.3932 24.8493 11.3209 24.7739C11.2473 24.6969 11.223 24.6375 11.223 24.5966V21.8818C11.9632 22.2637 12.9699 22.5532 14.1065 22.7501C15.3063 22.958 16.6561 23.0634 18 23.0634C19.3439 23.0634 20.6937 22.958 21.8935 22.7502C23.0301 22.5533 24.0368 22.2638 24.777 21.8818V24.5966C24.777 24.6375 24.7527 24.6969 24.6791 24.7739C24.6068 24.8493 24.4956 24.9323 24.344 25.0192C24.0412 25.1927 23.5897 25.3744 23.002 25.5395C21.8276 25.8695 20.1207 26.1299 18 26.1299ZM18 10.1558C20.1207 10.1558 21.8276 10.4162 23.002 10.7462C23.5897 10.9113 24.0412 11.093 24.344 11.2665C24.4956 11.3534 24.6068 11.4364 24.6791 11.5118C24.7527 11.5888 24.777 11.6483 24.777 11.6891C24.777 11.7299 24.7527 11.7894 24.6791 11.8663C24.6068 11.9417 24.4956 12.0248 24.344 12.1116C24.0412 12.2851 23.5897 12.4669 23.002 12.632C21.8276 12.9619 20.1207 13.2223 18 13.2223C15.8793 13.2223 14.1724 12.9619 12.998 12.632C12.4103 12.4669 11.9588 12.2851 11.656 12.1116C11.5044 12.0248 11.3932 11.9417 11.3209 11.8663C11.2473 11.7894 11.223 11.7299 11.223 11.6891C11.223 11.6483 11.2473 11.5888 11.3209 11.5118C11.3932 11.4364 11.5044 11.3534 11.656 11.2665C11.9588 11.093 12.4103 10.9113 12.998 10.7462C14.1724 10.4162 15.8793 10.1558 18 10.1558Z" fill="white" stroke="white" stroke-width="0.16038"/>
</svg>
