<svg width="37" height="37" viewBox="0 0 37 37" fill="none" xmlns="http://www.w3.org/2000/svg">
<path fill-rule="evenodd" clip-rule="evenodd" d="M33.5302 28.4081C35.4455 25.5475 36.5625 22.1073 36.5625 18.4062C36.5625 8.46512 28.5036 0.40625 18.5625 0.40625C8.62137 0.40625 0.5625 8.46512 0.5625 18.4062C0.5625 28.3474 8.62137 36.4062 18.5625 36.4062C19.724 36.4062 20.8597 36.2962 21.9599 36.0861C20.8873 35.0056 19.5192 33.6536 18.2474 32.4492C17.4468 31.6911 16.6897 30.9965 16.0708 30.4663C15.761 30.2009 15.4917 29.9817 15.2725 29.8181C15.0395 29.6442 14.9047 29.565 14.8527 29.5431C14.1974 29.2672 13.5365 28.9819 12.9928 28.701C12.7206 28.5604 12.465 28.4143 12.2477 28.264C12.0385 28.1193 11.8246 27.9435 11.6741 27.7327C11.6253 27.6645 11.5154 27.5137 11.3605 27.3013C11.2475 27.1463 11.1106 26.9585 10.9561 26.7461C10.5929 26.2466 10.138 25.6185 9.68712 24.9855C9.23684 24.3534 8.78776 23.7126 8.43703 23.1887C8.26198 22.9272 8.10804 22.6898 7.98962 22.4946C7.88467 22.3217 7.76987 22.1222 7.71708 21.9638C7.63028 21.7034 7.60592 21.3239 7.59653 20.9827C7.58629 20.6108 7.59322 20.175 7.60629 19.7435C7.61845 19.3423 7.63529 18.9537 7.65016 18.6107L7.65017 18.6106L7.65017 18.6106C7.66843 18.1892 7.68373 17.8363 7.68373 17.6126C7.68373 17.4806 7.65087 17.2749 7.58997 16.9758C7.57686 16.9115 7.56254 16.8431 7.54765 16.772C7.49949 16.5422 7.4453 16.2836 7.40672 16.038C7.35672 15.7196 7.31973 15.3506 7.3703 15.0103C7.42224 14.6607 7.58546 14.2404 8.02236 14.0019C8.3926 13.7999 8.80622 13.8427 9.13226 13.937C9.15535 13.5915 9.31899 13.2723 9.46352 13.0393C9.66189 12.7194 9.93415 12.3923 10.2146 12.0913C10.6326 11.6425 11.1086 11.2096 11.4857 10.8858C11.469 10.8237 11.4538 10.7619 11.4399 10.702C11.3755 10.4254 11.3178 10.094 11.2794 9.75301C11.2411 9.41339 11.2204 9.04972 11.2355 8.71224C11.2498 8.3916 11.2986 8.02395 11.4467 7.72208C11.503 7.60725 11.537 7.53502 11.5695 7.46583L11.5696 7.4657C11.5948 7.41204 11.6192 7.3602 11.6525 7.29172C11.7111 7.17117 11.7767 7.04393 11.8637 6.92114C12.0477 6.66147 12.2782 6.4924 12.5832 6.2968C12.7424 6.17688 13.4702 5.63333 14.345 5.57048C14.8087 5.53716 15.2212 5.70689 15.5355 5.90951C15.853 6.11414 16.1193 6.3827 16.3133 6.63529C16.3679 6.70632 16.4216 6.77526 16.4741 6.84271L16.4747 6.84341C16.5213 6.90325 16.567 6.96192 16.6116 7.01985C16.6231 6.98126 16.6357 6.94256 16.6496 6.9038C16.8492 6.34492 17.2718 5.86757 17.916 5.61856C18.316 5.46393 18.7374 5.3869 19.1643 5.4368C19.6023 5.488 19.9621 5.66313 20.2405 5.88443C20.5054 6.09503 20.6801 6.33386 20.7896 6.50506C20.8455 6.59248 20.8907 6.67263 20.9226 6.7303C20.9412 6.76386 20.9523 6.78427 20.9601 6.79853L20.9604 6.79913C20.9696 6.81597 20.974 6.82417 20.9808 6.83571C21.088 7.01972 21.2107 7.32838 21.3052 7.57275C21.3521 7.69393 21.4026 7.8279 21.4555 7.97124C21.4599 7.92308 21.471 7.85104 21.501 7.77356C21.8479 6.87745 22.7012 6.6318 23.3699 6.63726C24.0302 6.64266 24.738 6.87843 25.1719 7.22332C25.435 7.43241 25.6073 7.71404 25.7226 7.96464C25.8407 8.22129 25.9202 8.49236 25.9745 8.72813C26.0294 8.96627 26.0621 9.18468 26.0813 9.3428C26.0909 9.4224 26.0973 9.48808 26.1013 9.53499C26.1033 9.55848 26.1047 9.57735 26.1057 9.59101L26.1064 9.60177L26.1077 9.61562L26.1138 9.68145C26.119 9.73871 26.1265 9.8219 26.1358 9.92608C26.1542 10.1344 26.1795 10.4268 26.2068 10.7636C26.2214 10.9449 26.2367 11.1395 26.2519 11.3411C26.323 11.2269 26.4167 11.1014 26.5405 10.9815C27.0309 10.5068 27.6442 10.4399 28.0939 10.4399C29.5316 10.4399 30.5041 11.8447 30.5041 13.4676C30.5041 13.9952 30.389 14.6957 30.2416 15.2934C30.1654 15.6029 30.072 15.9194 29.9641 16.2047L29.9629 16.2079C30.157 16.5152 30.3513 16.8767 30.5415 17.2662C30.551 17.285 30.5603 17.3042 30.5695 17.3238C30.946 18.102 31.3249 19.0259 31.6722 19.9377C31.8441 20.3889 31.949 21.0667 32.0213 21.7719C32.0957 22.4979 32.1416 23.3254 32.1721 24.117C32.2026 24.9098 32.2178 25.6756 32.2297 26.2776C32.2406 26.8314 32.2485 27.2071 32.2592 27.3683C32.2777 27.3959 32.3102 27.4377 32.3621 27.4936C32.4816 27.6222 32.6579 27.7762 32.8732 27.9423C33.0818 28.1033 33.3108 28.2634 33.5302 28.4081ZM32.7678 29.4624C32.5389 29.3102 32.3007 29.1426 32.0789 28.9715C31.8376 28.7852 31.5985 28.5816 31.4098 28.3786C31.3154 28.2769 31.2221 28.1633 31.1465 28.0411C31.0745 27.9249 30.9933 27.7609 30.9715 27.5648C30.9511 27.3805 30.9422 26.9281 30.9316 26.3884L30.9299 26.3032C30.918 25.7004 30.903 24.946 30.873 24.167C30.843 23.3866 30.7983 22.5905 30.728 21.9044L30.7192 21.8202C30.6561 22.0841 30.6179 22.2581 30.6061 22.3757C30.5698 22.7388 30.3547 23.0818 30.1578 23.3416C29.9415 23.6271 29.6576 23.9255 29.3474 24.2129C28.7269 24.7878 27.9455 25.3698 27.2449 25.7755C26.4413 26.2407 25.3013 26.288 24.2993 26.2344C23.4571 26.1894 22.5939 26.0632 21.905 25.9581C22.002 26.239 22.1003 26.5947 22.193 27.0606C22.263 27.4127 22.0343 27.7549 21.6823 27.8249C21.3302 27.895 20.988 27.6663 20.9179 27.3142C20.7674 26.5572 20.6128 26.1866 20.5065 25.9738C20.4785 25.9177 20.4518 25.8684 20.4245 25.8189L20.4116 25.7956C20.3888 25.7544 20.3617 25.7055 20.3381 25.6595L20.3257 25.6347C19.6256 25.4118 18.8242 25.0685 18.0902 24.7333C17.5346 24.4796 16.9911 24.2176 16.5219 23.9911L16.4858 23.9736L16.4855 23.9735C16.0266 23.752 15.652 23.5711 15.3963 23.4593C14.8638 23.2263 14.0582 22.6568 13.2836 22.0294C12.8093 21.6452 12.3207 21.218 11.8789 20.7943C11.8242 20.9273 11.7674 21.0459 11.7112 21.1465C11.6574 21.2429 11.5824 21.3626 11.4872 21.4578C11.2334 21.7117 10.8218 21.7117 10.568 21.4578C10.3209 21.2108 10.3143 20.8144 10.5481 20.5593C10.5523 20.5531 10.5618 20.5385 10.5762 20.5127C10.6055 20.4601 10.6439 20.3814 10.686 20.2768C10.7699 20.0683 10.8603 19.777 10.9226 19.4224C11.0066 18.9435 11.0377 18.3581 10.9379 17.7118C10.8208 16.9527 10.2263 16.146 9.5499 15.622C9.27599 15.4098 9.02119 15.2702 8.82451 15.2027C8.75016 15.1772 8.69769 15.1663 8.6633 15.1616C8.66093 15.1726 8.6585 15.1857 8.65618 15.2013C8.63553 15.3404 8.64602 15.55 8.69098 15.8362C8.72395 16.0462 8.76831 16.258 8.81484 16.4803C8.83104 16.5576 8.8475 16.6362 8.86383 16.7164C8.92163 17.0003 8.98373 17.3301 8.98373 17.6126C8.98373 17.8547 8.96629 18.2628 8.94674 18.7205L8.94674 18.7206C8.9321 19.0632 8.91628 19.4336 8.9057 19.7829C8.89286 20.2064 8.88684 20.6127 8.89603 20.9469C8.90063 21.1141 8.90886 21.2555 8.92065 21.3677C8.92652 21.4234 8.93283 21.4678 8.93902 21.5017C8.94207 21.5184 8.94482 21.5311 8.94705 21.5403M32.7678 29.4624C30.4389 32.4503 27.188 34.6843 23.4426 35.7369C22.3097 34.5854 20.6596 32.9431 19.1413 31.5053C18.3343 30.7411 17.5593 30.0296 16.9166 29.479C16.5956 29.2041 16.3018 28.9642 16.05 28.7763C15.812 28.5986 15.5677 28.4336 15.3572 28.345C14.6997 28.0681 14.0823 27.8007 13.5896 27.5461C13.3436 27.419 13.1415 27.3016 12.9874 27.195C12.8252 27.0827 12.7541 27.0081 12.7319 26.9771C12.6799 26.9043 12.5628 26.7437 12.4021 26.5232C12.2895 26.3688 12.1555 26.185 12.0075 25.9815C11.6453 25.4835 11.1933 24.8593 10.746 24.2313C10.298 23.6024 9.8575 22.9736 9.5173 22.4655C9.34687 22.2109 9.20501 21.9916 9.10103 21.8203C8.99783 21.6502 8.95892 21.5702 8.95166 21.5553C8.95111 21.5541 8.95075 21.5534 8.95054 21.553M14.1019 21.0192C13.4371 20.4807 12.7605 19.8673 12.2511 19.3248C12.3168 18.7923 12.3253 18.1782 12.2227 17.5135C12.0521 16.4074 11.3105 15.4112 10.547 14.758C10.4958 14.4559 10.4559 14.1937 10.4278 13.9969C10.4292 14.0066 10.4295 14.0117 10.4302 14.0117C10.4307 14.0118 10.4315 14.0091 10.433 14.0037C10.4403 13.9782 10.4653 13.8905 10.5683 13.7244C10.7029 13.5073 10.9113 13.2506 11.1658 12.9773C11.672 12.434 12.2903 11.8998 12.6606 11.5968L12.6607 11.5969L12.6622 11.5956C12.6626 11.5954 12.6636 11.5948 12.6653 11.5938C12.6738 11.5889 12.6992 11.5741 12.7531 11.5478C12.8069 11.5216 12.863 11.496 12.9328 11.4641C12.9792 11.4429 13.0318 11.419 13.0937 11.3902C13.3236 11.2835 13.6135 11.142 13.9531 10.9391C14.1284 10.9995 14.3506 11.0548 14.6151 11.0493C15.0382 11.0406 15.5425 10.8894 16.2717 10.5781C16.407 10.5204 16.5445 10.4116 16.6268 10.3433C16.733 10.2552 16.854 10.1432 16.9699 10.0191C17.0001 9.98672 17.0309 9.95252 17.0617 9.91674L17.8492 12.3395L17.8506 12.344L17.8608 12.3751C17.8689 12.3992 17.8796 12.4299 17.8931 12.466C17.9196 12.5375 17.9582 12.6341 18.0097 12.7437C18.1036 12.9436 18.2789 13.2711 18.5637 13.5574C19.1553 14.152 20.1291 14.4804 21.0623 14.1006C21.508 13.9192 21.8616 13.6412 22.1137 13.2973C22.1511 13.7413 22.1995 14.1957 22.276 14.675C22.4547 15.7949 23.4941 16.2247 24.3436 16.2245C24.7032 16.2244 25.1287 16.2027 25.5384 15.9409C25.538 16.0272 25.5401 16.115 25.546 16.2015C25.5611 16.4215 25.6053 16.7219 25.7601 17.0267C25.9628 17.4258 26.2513 17.7095 26.5261 17.8955C26.7456 18.0441 27.1165 18.2374 27.5479 18.2374C28.0491 18.2374 28.4551 18.0362 28.75 17.8211C28.9027 17.7097 29.0441 17.5813 29.1751 17.4456C29.2405 17.5694 29.3072 17.7012 29.3751 17.8404L29.397 17.8853C29.4485 17.9971 29.5036 18.1601 29.5538 18.3438C29.6076 18.5408 29.6463 18.7265 29.6645 18.8304L29.6686 18.8532L29.6742 18.8758C29.813 19.431 29.7635 20.0466 29.6488 20.6529C29.5974 20.9246 29.5361 21.1799 29.4776 21.4234L29.4775 21.4234L29.4589 21.501C29.3991 21.7505 29.3351 22.0209 29.3125 22.2464C29.3129 22.2428 29.3124 22.2439 29.3101 22.2499C29.3006 22.2735 29.261 22.3727 29.1217 22.5565C28.9666 22.7611 28.741 23.0026 28.4639 23.2593C27.9098 23.7727 27.2056 24.2961 26.5935 24.6505C26.1513 24.9064 25.3613 24.9893 24.3688 24.9363C23.5306 24.8915 22.6674 24.7595 21.9505 24.6499C21.8479 24.6342 21.7482 24.6189 21.6521 24.6045C21.5702 24.5922 21.4908 24.5804 21.4145 24.5695C20.798 24.4814 19.7438 24.0593 18.6302 23.5508C18.0889 23.3036 17.5571 23.0473 17.0871 22.8204L17.0308 22.7932L17.0303 22.793C16.5895 22.5801 16.1959 22.3901 15.9174 22.2683C15.5611 22.1124 14.8746 21.6451 14.1019 21.0192ZM8.95039 21.5528C8.95038 21.5527 8.95037 21.5527 8.95035 21.5527C8.95035 21.5527 8.95036 21.5527 8.95037 21.5527L8.95039 21.5528ZM14.29 9.6749L14.2203 9.64782C14.1818 9.61473 14.1331 9.5723 14.0816 9.52587C13.9472 9.40464 13.849 9.30522 13.8205 9.26664C13.684 9.08209 13.497 8.72489 13.3292 8.37092C13.2494 8.20253 13.1801 8.04811 13.1307 7.93572L13.1068 7.88098C13.1186 7.61438 13.166 7.51629 13.1814 7.48975C13.1982 7.4607 13.2006 7.45818 13.3428 7.35207C13.4832 7.24731 13.9526 6.90202 14.4382 6.86713C14.5268 6.86077 14.6595 6.89152 14.8312 7.00219C14.9997 7.11083 15.1603 7.26834 15.2824 7.42721C15.3548 7.52146 15.4194 7.6045 15.4776 7.67942L15.4777 7.67948L15.4777 7.67951C15.6632 7.91807 15.7849 8.07446 15.8914 8.24908C15.9972 8.42235 16.0881 8.61679 16.1826 8.93023C16.1454 8.98717 16.0897 9.05688 16.0196 9.13191C15.9433 9.21367 15.8627 9.28805 15.7967 9.34285C15.7669 9.36761 15.7434 9.38555 15.7276 9.39688C15.0434 9.68667 14.7425 9.74645 14.5883 9.74962C14.4869 9.75171 14.4523 9.73821 14.29 9.6749ZM12.7752 10.0395C12.7138 9.95652 12.6514 9.86072 12.5897 9.75818C12.6084 9.89866 12.6304 10.0344 12.6542 10.1603C12.7039 10.1366 12.7558 10.1113 12.8098 10.0843C12.7977 10.0692 12.7861 10.0543 12.7752 10.0395ZM19.0869 11.9419L18.1104 8.93741C18.1104 8.93741 17.2752 7.26001 18.3847 6.83111C19.302 6.47653 19.626 7.06879 19.8093 7.40366L19.8093 7.40377C19.8265 7.43519 19.8425 7.46433 19.8575 7.49022C20.0334 7.79203 20.8533 10.0761 21.1972 11.359C21.3535 11.9419 21.2869 12.6057 20.5722 12.8965C20.2025 13.047 19.7706 12.9272 19.4854 12.6405C19.2192 12.373 19.0869 11.9419 19.0869 11.9419ZM16.2196 8.86458L16.2204 8.86245C16.2204 8.86244 16.2202 8.86315 16.2196 8.86458ZM15.7111 9.40806L15.7148 9.40575C15.7123 9.4074 15.7111 9.40811 15.7111 9.40806ZM32.2456 27.3462L32.2439 27.3428C32.2439 27.3428 32.244 27.343 32.2442 27.3435C32.2445 27.3441 32.2449 27.345 32.2456 27.3462ZM24.8089 9.68265L24.8095 9.6903L24.8095 9.69036L24.8095 9.69054L24.8095 9.69075L24.8095 9.69107L24.8095 9.69133L24.8101 9.70206L24.8112 9.71379L24.8112 9.71383L24.8113 9.71406L24.8114 9.71505L24.8117 9.71914L24.8133 9.73556L24.8192 9.79981C24.8243 9.85597 24.8317 9.93795 24.8408 10.0408C24.8591 10.2466 24.8841 10.5356 24.911 10.8685C24.965 11.536 25.0264 12.3729 25.0576 13.0666C25.0632 13.19 25.0715 13.3079 25.0797 13.4234L25.0797 13.4234C25.097 13.6672 25.1135 13.9 25.1011 14.1497C25.0831 14.513 25.0045 14.6957 24.92 14.7789C24.8503 14.8474 24.7935 14.875 24.7297 14.8924C24.6484 14.9144 24.5384 14.9245 24.3433 14.9245C24.0962 14.9246 23.8964 14.864 23.7663 14.7795C23.6488 14.7032 23.5815 14.6064 23.5597 14.4701C23.4441 13.7454 23.3976 13.0795 23.3469 12.3535L23.3469 12.3535L23.3448 12.3236C23.2936 11.59 23.2375 10.8019 23.0966 9.88193C23.0428 9.53072 22.959 9.12086 22.8885 8.77598L22.8885 8.77579L22.8564 8.61857C22.8173 8.42631 22.7861 8.26777 22.7673 8.15211L22.7662 8.14548C22.8577 8.02075 23.0332 7.93455 23.3593 7.93722C23.7734 7.9406 24.1884 8.10225 24.363 8.24102C24.4042 8.27376 24.4704 8.35316 24.5417 8.50807C24.6102 8.65694 24.6653 8.83588 24.7077 9.01987C24.7495 9.2015 24.7754 9.37264 24.7907 9.49912C24.7983 9.56182 24.8032 9.6122 24.806 9.64578C24.8075 9.66254 24.8084 9.67502 24.8089 9.68265ZM8.67954 15.1117C8.67966 15.112 8.67872 15.1141 8.67634 15.1173C8.67822 15.1131 8.67942 15.1115 8.67954 15.1117ZM29.2041 13.4676C29.2041 12.2582 28.543 11.7399 28.0939 11.7399C27.4508 11.7399 27.3693 11.9445 27.2096 12.3457L27.2096 12.3458C27.1978 12.3753 27.1857 12.4058 27.1729 12.4374C27.0135 12.8297 26.9224 13.5758 26.9192 14.0889C26.916 14.6104 26.8886 15.0277 26.8666 15.3635C26.8317 15.8956 26.8102 16.2235 26.9192 16.438C27.0969 16.788 27.4269 16.9374 27.5479 16.9374C27.8291 16.9374 28.1178 16.7172 28.4818 16.2656C28.8457 15.814 29.2041 14.2276 29.2041 13.4676Z" fill="#4DA6F8"/>
</svg>
