<svg width="37" height="37" viewBox="0 0 37 37" fill="none" xmlns="http://www.w3.org/2000/svg">
<path fill-rule="evenodd" clip-rule="evenodd" d="M18.5625 36.6697C28.5036 36.6697 36.5625 28.6108 36.5625 18.6697C36.5625 8.72855 28.5036 0.669678 18.5625 0.669678C8.62137 0.669678 0.5625 8.72855 0.5625 18.6697C0.5625 28.6108 8.62137 36.6697 18.5625 36.6697ZM24.7225 23.4743C24.6877 23.567 24.6508 23.6586 24.6119 23.7492C23.6221 26.0548 21.331 27.6697 18.6628 27.6697C15.0889 27.6697 12.1917 24.7724 12.1917 21.1985C12.1917 20.364 12.1917 19.6018 12.3515 18.8088C12.4235 18.4513 12.7052 18.2115 13.0397 18.1463C13.1879 18.1174 13.3466 18.1228 13.502 18.1675L16.941 19.1568L17.5495 19.3318L18.1304 19.4989C18.6609 19.6516 19.2148 19.3454 19.3677 18.8149L19.499 18.3594L19.7344 17.5426L20.6098 14.506C20.6595 14.3335 20.7516 14.1845 20.8717 14.0676C21.115 13.8304 21.4729 13.7246 21.8241 13.82C23.3021 14.2213 25.4119 14.8086 26.4448 15.0968C26.8727 15.2323 27.1105 15.6882 26.9766 16.1166L26.9679 16.1445L24.9606 22.6929L24.7225 23.4743ZM18.6628 26.2697C20.819 26.2697 22.6641 24.9235 23.3971 23.021L23.6214 22.2848L23.6221 22.2826L25.4631 16.2766C24.458 15.9966 23.0153 15.5962 21.8446 15.2766L20.7129 19.2027C20.3459 20.4758 19.0166 21.2107 17.7433 20.8444L13.6386 19.6636C13.5938 20.1172 13.5917 20.6014 13.5917 21.1985C13.5917 23.9992 15.8621 26.2697 18.6628 26.2697ZM13.8599 16.9231L13.1854 16.7327L12.5971 16.5666C12.0656 16.4165 11.7564 15.864 11.9065 15.3325L13.2336 10.6321C13.3836 10.1005 13.9362 9.79133 14.4677 9.94139L19.1681 11.2685C19.6996 11.4186 20.0089 11.9711 19.8588 12.5026L19.6033 13.4076L19.3923 14.155L18.5317 17.203C18.4786 17.3912 18.375 17.5516 18.2397 17.6735C18.0928 17.806 17.9085 17.8931 17.7109 17.9215C17.5767 17.9408 17.4365 17.9329 17.2976 17.8937L13.8599 16.9231ZM13.3625 15.328L14.4722 11.3974L18.4028 12.5071L17.293 16.4377L13.3625 15.328Z" fill="#F59726"/>
</svg>
