<svg width="236" height="236" viewBox="0 0 236 236" fill="none" xmlns="http://www.w3.org/2000/svg">
<path d="M227.571 80.0714V172.786C227.571 180.863 224.674 187.799 218.879 193.594C213.085 199.388 206.149 202.286 198.071 202.286H37.9285C29.8511 202.286 22.9151 199.388 17.1204 193.594C11.3258 187.799 8.42847 180.863 8.42847 172.786V46.3571C8.42847 38.2798 11.3258 31.3438 17.1204 25.5491C22.9151 19.7545 29.8511 16.8571 37.9285 16.8571H80.0713C88.1487 16.8571 95.0847 19.7545 100.879 25.5491C106.674 31.3438 109.571 38.2798 109.571 46.3571V50.5714H198.071C206.149 50.5714 213.085 53.4688 218.879 59.2634C224.674 65.058 227.571 71.9941 227.571 80.0714Z" fill="#7F8697"/>
</svg>
