<svg width="36" height="36" viewBox="0 0 36 36" fill="none" xmlns="http://www.w3.org/2000/svg">
<path fill-rule="evenodd" clip-rule="evenodd" d="M18 36C27.9411 36 36 27.9411 36 18C36 8.05887 27.9411 0 18 0C8.05887 0 0 8.05887 0 18C0 27.9411 8.05887 36 18 36ZM11.7 9.8999C11.2584 9.8999 10.9004 10.2579 10.9004 10.6995V25.2094C10.9004 25.6511 11.2584 26.0091 11.7 26.0091H24.3007C24.7424 26.0091 25.1004 25.6511 25.1004 25.2094V13.7543C25.1004 13.5422 25.0161 13.3388 24.8662 13.1888L21.8115 10.1341C21.6615 9.98415 21.4581 9.8999 21.246 9.8999H11.7ZM12.4997 24.4098V11.4992H19.6827V14.5179C19.6827 14.9596 20.0407 15.3176 20.4823 15.3176H23.5011V24.4098H12.4997ZM21.1551 11.5601L23.4402 13.8452H21.1551V11.5601Z" fill="#FF6231"/>
</svg>
