<svg width="36" height="36" viewBox="0 0 36 36" fill="none" xmlns="http://www.w3.org/2000/svg">
<circle cx="18" cy="18" r="18" fill="#6643C9"/>
<path d="M16.3663 28.0999C21.0346 28.0999 24.8325 24.302 24.8325 19.6336C24.8325 19.2895 24.5537 19.0107 24.2096 19.0107H16.9892V11.7902C16.9892 11.4462 16.7103 11.1673 16.3663 11.1673C11.6979 11.1673 7.9 14.9652 7.9 19.6336C7.9 24.302 11.6979 28.0999 16.3663 28.0999ZM15.7434 12.4397V19.6336C15.7434 19.9777 16.0222 20.2565 16.3663 20.2565H23.5602C23.2432 23.9471 20.1376 26.8541 16.3663 26.8541C12.385 26.8541 9.14578 23.6149 9.14578 19.6336C9.14578 15.8623 12.0527 12.7567 15.7434 12.4397Z" fill="white" stroke="white" stroke-width="0.2"/>
<path d="M19.5805 7.9C19.2364 7.9 18.9576 8.17882 18.9576 8.52289V16.3663C18.9576 16.7103 19.2364 16.9892 19.5805 16.9892H27.4239C27.768 16.9892 28.0468 16.7103 28.0468 16.3663C28.0468 11.6979 24.2489 7.9 19.5805 7.9ZM20.2034 15.7434V9.17233C23.6886 9.47161 26.4752 12.2581 26.7744 15.7434H20.2034Z" fill="white" stroke="white" stroke-width="0.2"/>
</svg>
