<svg width="37" height="37" viewBox="0 0 37 37" fill="none" xmlns="http://www.w3.org/2000/svg">
<path fill-rule="evenodd" clip-rule="evenodd" d="M18.5625 36.7302C28.5036 36.7302 36.5625 28.6714 36.5625 18.7302C36.5625 8.7891 28.5036 0.730225 18.5625 0.730225C8.62137 0.730225 0.5625 8.7891 0.5625 18.7302C0.5625 28.6714 8.62137 36.7302 18.5625 36.7302ZM14.2129 12.8552C14.2129 13.1314 14.4367 13.3552 14.7129 13.3552H15.1129C15.389 13.3552 15.6129 13.1314 15.6129 12.8552V12.3295H16.7129V12.8552C16.7129 13.1314 16.9367 13.3552 17.2129 13.3552H17.6129C17.889 13.3552 18.1129 13.1314 18.1129 12.8552V12.3295H19.2129V12.8552C19.2129 13.1314 19.4367 13.3552 19.7129 13.3552H20.1129C20.389 13.3552 20.6129 13.1314 20.6129 12.8552V12.3295H21.7129V12.8552C21.7129 13.1314 21.9367 13.3552 22.2129 13.3552H22.6129C22.889 13.3552 23.1129 13.1314 23.1129 12.8552V12.3295H24.1632V17.2439L20.4265 20.9802H16.1621C15.886 20.9802 15.6621 21.2041 15.6621 21.4802C15.6621 21.7564 15.886 21.9802 16.1621 21.9802H20.0291L19.683 23.3646C19.6234 23.6032 19.6934 23.8555 19.8672 24.0293C20.0001 24.1622 20.1788 24.2345 20.3623 24.2345C20.4186 24.2345 20.4756 24.2278 20.532 24.2137L22.5321 23.7137C22.6551 23.6829 22.7676 23.6191 22.8571 23.5295L24.1632 22.2235V25.2401H13.1618V12.3295H14.2129V12.8552ZM23.1129 10.7302H24.9629C25.7625 10.7302 25.7625 11.5299 25.7625 11.5299V15.6447L26.937 14.4703C27.4052 14.0022 28.1664 14.0027 28.6341 14.4703L29.4269 15.2631C29.895 15.731 29.895 16.4923 29.4269 16.9602L25.7625 20.6243V26.0398C25.7625 26.4814 25.4045 26.8394 24.9629 26.8394H12.3621C11.9205 26.8394 11.5625 26.4814 11.5625 26.0398V11.5299C11.5625 11.0882 11.9205 10.7302 12.3621 10.7302H14.2129V9.94287C14.2129 9.66673 14.4367 9.44287 14.7129 9.44287H15.1129C15.389 9.44287 15.6129 9.66673 15.6129 9.94287V10.7302H16.7129V9.94287C16.7129 9.66673 16.9367 9.44287 17.2129 9.44287H17.6129C17.889 9.44287 18.1129 9.66673 18.1129 9.94287V10.7302H19.2129V9.94287C19.2129 9.66673 19.4367 9.44287 19.7129 9.44287H20.1129C20.389 9.44287 20.6129 9.66673 20.6129 9.94287V10.7302H21.7129V9.94287C21.7129 9.66673 21.9367 9.44287 22.2129 9.44287H22.6129C22.889 9.44287 23.1129 9.66673 23.1129 9.94287V10.7302ZM15.6621 17.4802C15.6621 17.2041 15.886 16.9802 16.1621 16.9802H21.1621C21.4383 16.9802 21.6621 17.2041 21.6621 17.4802C21.6621 17.7564 21.4383 17.9802 21.1621 17.9802H16.1621C15.886 17.9802 15.6621 17.7564 15.6621 17.4802ZM15.6621 19.4802C15.6621 19.2041 15.886 18.9802 16.1621 18.9802H21.1621C21.4383 18.9802 21.6621 19.2041 21.6621 19.4802C21.6621 19.7564 21.4383 19.9802 21.1621 19.9802H16.1621C15.886 19.9802 15.6621 19.7564 15.6621 19.4802ZM27.0884 17.3187L22.0045 22.4023L21.3244 22.5724L21.4945 21.8924L26.5784 16.8088L27.0884 17.3187ZM28.5785 16.1117L28.0784 16.6117L27.2856 15.8187L27.7856 15.3187L28.5785 16.1117Z" fill="#65B400"/>
</svg>
