<svg width="36" height="36" viewBox="0 0 36 36" fill="none" xmlns="http://www.w3.org/2000/svg">
<circle cx="18" cy="18" r="18" fill="#B677DC"/>
<path d="M9.47545 17.1854C9.73844 17.2848 10.0349 17.2107 10.2206 16.9999L10.2206 16.9999C10.5682 16.6051 11.0669 16.3786 11.5889 16.3786C12.5953 16.3786 13.4139 17.1972 13.4139 18.2036C13.4139 19.21 12.5953 20.0286 11.5889 20.0286C11.0669 20.0286 10.5682 19.8021 10.2206 19.4073L10.2206 19.4073C10.035 19.1968 9.73953 19.1219 9.47543 19.2218C9.21271 19.321 9.03887 19.5726 9.03887 19.8534V26.3286C9.03887 26.7015 9.341 27.0036 9.71387 27.0036H16.1889C16.4697 27.0036 16.7213 26.8297 16.8204 26.567C16.9195 26.3043 16.8458 26.0076 16.6349 25.8221C16.2403 25.4742 16.0139 24.9754 16.0139 24.4536C16.0139 23.4472 16.8325 22.6286 17.8389 22.6286C18.8453 22.6286 19.6639 23.4472 19.6639 24.4536C19.6639 24.9754 19.4374 25.4742 19.0426 25.8221L19.0425 25.8221C18.832 26.0078 18.758 26.3043 18.8571 26.567L18.8571 26.5671C18.9565 26.8297 19.2081 27.0036 19.4889 27.0036H24.0889C24.4617 27.0036 24.7639 26.7015 24.7639 26.3286V21.1419C25.1411 21.2967 25.548 21.3786 25.9639 21.3786C27.7147 21.3786 29.1389 19.9545 29.1389 18.2036C29.1389 16.4527 27.7147 15.0286 25.9639 15.0286C25.548 15.0286 25.1411 15.1108 24.7639 15.2654V11.9536C24.7639 11.5807 24.4617 11.2786 24.0889 11.2786H20.7769C20.9317 10.9014 21.0139 10.4945 21.0139 10.0786C21.0139 8.32775 19.5897 6.90361 17.8389 6.90361C16.088 6.90361 14.6639 8.32775 14.6639 10.0786C14.6639 10.4945 14.746 10.9014 14.9008 11.2786H9.71387C9.341 11.2786 9.03887 11.5807 9.03887 11.9536V16.5539C9.03887 16.8346 9.21272 17.0863 9.47545 17.1854ZM9.47545 17.1854L9.49312 17.1386L9.47547 17.1854C9.47546 17.1854 9.47545 17.1854 9.47545 17.1854Z" fill="white" stroke="white" stroke-width="0.1"/>
<path fill-rule="evenodd" clip-rule="evenodd" d="M19.0756 11.4846C19.4811 11.1274 19.7139 10.6149 19.7139 10.0786C19.7139 9.04461 18.8729 8.20361 17.8389 8.20361C16.8049 8.20361 15.9639 9.04461 15.9639 10.0786C15.9639 10.6149 16.1966 11.1274 16.6019 11.4846C16.7971 11.6564 16.8654 11.9311 16.7736 12.1744C16.6819 12.4176 16.4489 12.5786 16.1889 12.5786H10.3389V15.3409C10.372 15.3264 10.4053 15.3125 10.4389 15.2991C10.8014 15.1551 11.191 15.0786 11.5889 15.0786C13.3121 15.0786 14.7139 16.4804 14.7139 18.2036C14.7139 19.9269 13.3121 21.3286 11.5889 21.3286C11.191 21.3286 10.8014 21.2524 10.4389 21.1082C10.4053 21.0948 10.372 21.0809 10.3389 21.0664V25.7036H14.9764C14.9619 25.6705 14.9479 25.6372 14.9346 25.6036C14.7903 25.2411 14.7139 24.8515 14.7139 24.4536C14.7139 22.7304 16.1156 21.3286 17.8389 21.3286C19.5621 21.3286 20.9639 22.7304 20.9639 24.4536C20.9639 24.8515 20.8874 25.2411 20.7432 25.6036C20.7298 25.6372 20.7159 25.6705 20.7014 25.7036H23.4639V19.8534C23.4639 19.5934 23.6246 19.3604 23.8681 19.2686C24.1126 19.1761 24.3861 19.2454 24.5581 19.4404C24.9151 19.8459 25.4274 20.0786 25.9639 20.0786C26.9979 20.0786 27.8389 19.2376 27.8389 18.2036C27.8389 17.1696 26.9979 16.3286 25.9639 16.3286C25.4276 16.3286 24.9151 16.5614 24.5581 16.9669C24.3861 17.1621 24.1116 17.2306 23.8681 17.1386C23.6249 17.0469 23.4639 16.8139 23.4639 16.5539V12.5786H19.4889C19.2289 12.5786 18.9959 12.4176 18.9039 12.1744C18.8121 11.9311 18.8806 11.6566 19.0756 11.4846Z" fill="#B677DC"/>
</svg>
