<svg width="36" height="36" viewBox="0 0 36 36" fill="none" xmlns="http://www.w3.org/2000/svg">
<circle cx="18" cy="18" r="18" fill="#244ABB"/>
<path fill-rule="evenodd" clip-rule="evenodd" d="M12.9998 10.3C13.3864 10.3 13.6998 10.6134 13.6998 11V20C13.6998 21.2703 14.7296 22.3 15.9998 22.3H19.9998C21.2701 22.3 22.2998 21.2703 22.2998 20V18.2581C22.2998 16.9879 21.2701 15.9581 19.9998 15.9581H15.4998C15.1132 15.9581 14.7998 15.6447 14.7998 15.2581C14.7998 14.8715 15.1132 14.5581 15.4998 14.5581H19.9998C22.0433 14.5581 23.6998 16.2147 23.6998 18.2581V20C23.6998 22.0435 22.0433 23.7 19.9998 23.7H15.9998C13.9564 23.7 12.2998 22.0435 12.2998 20V11C12.2998 10.6134 12.6132 10.3 12.9998 10.3Z" fill="white"/>
</svg>
