<svg width="36" height="36" viewBox="0 0 36 36" fill="none" xmlns="http://www.w3.org/2000/svg">
<circle cx="18" cy="18" r="18" fill="#10D6E2"/>
<path d="M17.5711 17.5671C17.5711 19.3214 18.9982 20.7484 20.7524 20.7484C22.5067 20.7484 23.9337 19.3214 23.9337 17.5671C23.9337 15.8128 22.5067 14.3858 20.7524 14.3858C18.9982 14.3858 17.5711 15.8128 17.5711 17.5671ZM22.6728 17.5671C22.6728 18.6259 21.8112 19.4875 20.7524 19.4875C19.6936 19.4875 18.832 18.6259 18.832 17.5671C18.832 16.5083 19.6936 15.6467 20.7524 15.6467C21.8112 15.6467 22.6728 16.5083 22.6728 17.5671Z" fill="white" stroke="white" stroke-width="0.240571"/>
<path d="M20.7543 21.5282C19.3953 21.5282 18.1579 21.8174 17.1831 22.31C16.2083 21.8174 14.9709 21.5282 13.6119 21.5282C12.0198 21.5282 10.5935 21.9247 9.56126 22.5816C8.52967 23.2381 7.87971 24.1642 7.87971 25.2196V26.24C7.87971 26.5882 8.16192 26.8704 8.51017 26.8704H15.6526H18.7136H25.856C26.2042 26.8704 26.4865 26.5882 26.4865 26.24V25.2196C26.4865 24.1642 25.8365 23.2381 24.8049 22.5816C23.7727 21.9247 22.3464 21.5282 20.7543 21.5282ZM18.0831 25.6095H16.1627H9.14063V25.2196C9.14063 24.5932 9.61952 23.9873 10.4412 23.5308C11.2576 23.0773 12.3848 22.7891 13.6119 22.7891C14.839 22.7891 15.9662 23.0773 16.7825 23.5308C17.6042 23.9873 18.0831 24.5932 18.0831 25.2196V25.6095ZM25.2255 25.6095H19.3441V25.2196C19.3441 24.4486 18.9955 23.746 18.4059 23.1677C19.0931 22.9292 19.8997 22.7891 20.7543 22.7891C21.9814 22.7891 23.1086 23.0773 23.9249 23.5308C24.7466 23.9873 25.2255 24.5932 25.2255 25.2196V25.6095Z" fill="white" stroke="white" stroke-width="0.240571"/>
<path d="M10.4305 17.5671C10.4305 19.3214 11.8575 20.7484 13.6118 20.7484C15.3661 20.7484 16.7931 19.3214 16.7931 17.5671C16.7931 15.8128 15.3661 14.3858 13.6118 14.3858C11.8575 14.3858 10.4305 15.8128 10.4305 17.5671ZM15.5322 17.5671C15.5322 18.6259 14.6706 19.4875 13.6118 19.4875C12.553 19.4875 11.6914 18.6259 11.6914 17.5671C11.6914 16.5083 12.553 15.6467 13.6118 15.6467C14.6706 15.6467 15.5322 16.5083 15.5322 17.5671Z" fill="white" stroke="white" stroke-width="0.240571"/>
<path fill-rule="evenodd" clip-rule="evenodd" d="M13.4691 8.04817C13.8134 8.18584 13.981 8.57659 13.8433 8.92092L13.4831 9.82175C13.6144 9.7703 13.7572 9.71726 13.9103 9.66427C14.7645 9.36856 15.9603 9.06777 17.3007 9.06777C18.6412 9.06777 19.8369 9.36856 20.6912 9.66427C20.8916 9.73365 21.0743 9.80312 21.2369 9.86899L20.8578 8.92092C20.7201 8.57659 20.8877 8.18584 21.232 8.04817C21.5763 7.91049 21.9671 8.07803 22.1048 8.42236L23.0603 10.8124C23.1265 10.9777 23.1242 11.1626 23.054 11.3262C22.9838 11.4899 22.8515 11.619 22.6861 11.6851L20.2961 12.6407C19.9518 12.7784 19.5611 12.6108 19.4234 12.2665C19.2857 11.9222 19.4532 11.5314 19.7976 11.3937L20.615 11.0669C20.5033 11.0233 20.382 10.9784 20.2519 10.9333C19.4897 10.6695 18.4472 10.4107 17.3007 10.4107C16.1542 10.4107 15.1118 10.6695 14.3496 10.9333C14.2389 10.9716 14.1345 11.0099 14.0371 11.0473L14.9035 11.3937C15.2479 11.5314 15.4154 11.9222 15.2777 12.2665C15.14 12.6108 14.7493 12.7784 14.405 12.6407L12.015 11.6851C11.8496 11.619 11.7173 11.4899 11.6471 11.3262C11.5769 11.1626 11.5746 10.9777 11.6408 10.8124L12.5963 8.42236C12.734 8.07803 13.1248 7.91049 13.4691 8.04817Z" fill="#FFFBFB"/>
</svg>
