<svg width="148" height="125" viewBox="0 0 148 125" fill="none" xmlns="http://www.w3.org/2000/svg">
<path d="M74 125C114.869 125 148 118.381 148 110.215C148 102.049 114.869 95.43 74 95.43C33.1309 95.43 0 102.049 0 110.215C0 118.381 33.1309 125 74 125Z" fill="#E3E8F4"/>
<path d="M122.006 0H26.9089V110.215H122.006V0Z" fill="#CBD1E1"/>
<path d="M70.083 18H39.04V52H70.083V18Z" fill="white"/>
<path d="M70.083 60H39.04V94H70.083V60Z" fill="white"/>
<path d="M109.112 18H78.045V52H109.112V18Z" fill="white"/>
<path d="M109.112 60H78.045V94H109.112V60Z" fill="white"/>
<path d="M65.1441 34.549H42.1211V37.729H65.1441V34.549Z" fill="#CBD1E1"/>
<path d="M65.1441 76.549H42.1211V79.729H65.1441V76.549Z" fill="#CBD1E1"/>
<path d="M105.185 34.549H82.162V37.729H105.185V34.549Z" fill="#CBD1E1"/>
<path d="M105.185 76.549H82.162V79.729H105.185V76.549Z" fill="#CBD1E1"/>
<path d="M56.1351 39.825H42.1211V43.005H56.1351V39.825Z" fill="#CBD1E1"/>
<path d="M60.9661 44.825H42.1211V48.005H60.9661V44.825Z" fill="#CBD1E1"/>
<path d="M56.1351 81.825H42.1211V85.005H56.1351V81.825Z" fill="#CBD1E1"/>
<path d="M60.9661 86.825H42.1211V90.005H60.9661V86.825Z" fill="#CBD1E1"/>
<path d="M96.176 39.825H82.162V43.005H96.176V39.825Z" fill="#CBD1E1"/>
<path d="M101.007 44.825H82.162V48.005H101.007V44.825Z" fill="#CBD1E1"/>
<path d="M96.176 81.825H82.162V85.005H96.176V81.825Z" fill="#CBD1E1"/>
<path d="M101.007 86.825H82.162V90.005H101.007V86.825Z" fill="#CBD1E1"/>
<path d="M47.7011 32.854C50.8259 32.854 53.3591 30.3235 53.3591 27.202C53.3591 24.0805 50.8259 21.55 47.7011 21.55C44.5763 21.55 42.0431 24.0805 42.0431 27.202C42.0431 30.3235 44.5763 32.854 47.7011 32.854Z" fill="#CBD1E1"/>
<path d="M47.7011 74.854C50.8259 74.854 53.3591 72.3235 53.3591 69.202C53.3591 66.0805 50.8259 63.55 47.7011 63.55C44.5763 63.55 42.0431 66.0805 42.0431 69.202C42.0431 72.3235 44.5763 74.854 47.7011 74.854Z" fill="#CBD1E1"/>
<path d="M87.742 32.854C90.8668 32.854 93.4 30.3235 93.4 27.202C93.4 24.0805 90.8668 21.55 87.742 21.55C84.6172 21.55 82.084 24.0805 82.084 27.202C82.084 30.3235 84.6172 32.854 87.742 32.854Z" fill="#CBD1E1"/>
<path d="M87.742 74.854C90.8668 74.854 93.4 72.3235 93.4 69.202C93.4 66.0805 90.8668 63.55 87.742 63.55C84.6172 63.55 82.084 66.0805 82.084 69.202C82.084 72.3235 84.6172 74.854 87.742 74.854Z" fill="#CBD1E1"/>
</svg>
