<svg width="37" height="37" viewBox="0 0 37 37" fill="none" xmlns="http://www.w3.org/2000/svg">
<path fill-rule="evenodd" clip-rule="evenodd" d="M36.5625 18.6091C36.5625 28.5503 28.5036 36.6091 18.5625 36.6091C8.62137 36.6091 0.5625 28.5503 0.5625 18.6091C0.5625 8.668 8.62137 0.609131 18.5625 0.609131C28.5036 0.609131 36.5625 8.668 36.5625 18.6091ZM10.3587 9.63501C9.90604 9.63501 9.53906 10.002 9.53906 10.4547V25.8907C9.53906 26.3434 9.90604 26.7104 10.3587 26.7104H26.7194C27.1721 26.7104 27.5391 26.3434 27.5391 25.8907V10.4547C27.5391 10.4547 27.5391 9.63501 26.7194 9.63501H10.3587ZM11.1784 14.0466V25.071H25.8997V14.0466H11.1784ZM15.0465 22.6719C15.3478 22.7376 15.6435 22.7705 15.9338 22.7705C16.3829 22.7705 16.7691 22.702 17.0922 22.5651C17.4209 22.4281 17.6728 22.2337 17.8481 21.9817C18.0234 21.7243 18.111 21.4231 18.111 21.078C18.111 20.6891 18.0014 20.366 17.7824 20.1086C17.6026 19.8973 17.3656 19.7506 17.0715 19.6685C17.2102 19.6156 17.3321 19.5459 17.4373 19.4595C17.5961 19.3281 17.7194 19.1692 17.807 18.983C17.8946 18.7968 17.9385 18.5914 17.9385 18.3668C17.9385 18.0382 17.859 17.7589 17.7002 17.5288C17.5414 17.2933 17.3141 17.1125 17.0183 16.9866C16.7225 16.8606 16.3665 16.7976 15.9502 16.7976C15.6654 16.7976 15.3834 16.8332 15.104 16.9044C14.8302 16.9756 14.5755 17.0797 14.34 17.2166C14.214 17.2823 14.1263 17.3672 14.0771 17.4713C14.0332 17.5754 14.0195 17.6794 14.036 17.7835C14.0579 17.8821 14.1017 17.9697 14.1674 18.0464C14.2386 18.1231 14.3263 18.1724 14.4303 18.1943C14.5344 18.2162 14.6467 18.197 14.7672 18.1368C14.9644 18.0327 15.1478 17.9615 15.3176 17.9232C15.4874 17.8793 15.66 17.8574 15.8352 17.8574C16.12 17.8574 16.3364 17.9149 16.4843 18.03C16.6376 18.145 16.7143 18.312 16.7143 18.5311C16.7143 18.6845 16.676 18.8132 16.5993 18.9173C16.5281 19.0213 16.4268 19.1035 16.2953 19.1637C16.1693 19.2185 16.0132 19.2459 15.827 19.2459H15.4655C15.2848 19.2459 15.1451 19.2925 15.0465 19.3856C14.9534 19.4732 14.9068 19.5992 14.9068 19.7635C14.9068 19.9223 14.9534 20.0483 15.0465 20.1414C15.1451 20.229 15.2848 20.2729 15.4655 20.2729H15.9502C16.257 20.2729 16.4897 20.3304 16.6486 20.4454C16.8074 20.5604 16.8868 20.7329 16.8868 20.963C16.8868 21.1273 16.8485 21.2642 16.7718 21.3738C16.6951 21.4833 16.5829 21.5682 16.435 21.6285C16.2871 21.6832 16.1036 21.7106 15.8845 21.7106C15.6928 21.7106 15.5011 21.6887 15.3094 21.6449C15.1177 21.6011 14.9151 21.5271 14.7015 21.4231C14.5645 21.3573 14.4385 21.3354 14.3235 21.3573C14.214 21.3793 14.1236 21.4313 14.0524 21.5134C13.9812 21.5901 13.9374 21.6805 13.921 21.7846C13.91 21.8886 13.9292 21.9954 13.9785 22.105C14.0332 22.209 14.1318 22.2994 14.2742 22.3761C14.4933 22.5021 14.7507 22.6007 15.0465 22.6719ZM19.4223 22.5404C19.5154 22.6335 19.6496 22.6801 19.8249 22.6801H22.6757C22.8455 22.6801 22.977 22.6363 23.0701 22.5486C23.1632 22.4555 23.2098 22.3241 23.2098 22.1543C23.2098 21.9845 23.1632 21.8558 23.0701 21.7681C22.977 21.6805 22.8455 21.6367 22.6757 21.6367H21.9281V17.3316C21.9281 17.1564 21.8788 17.0276 21.7802 16.9455C21.6871 16.8579 21.5584 16.814 21.3941 16.814C21.2791 16.814 21.1613 16.8359 21.0408 16.8798C20.9258 16.9236 20.8108 16.9811 20.6957 17.0523L19.5537 17.7424C19.4333 17.8191 19.3511 17.9122 19.3073 18.0218C19.2635 18.1258 19.2525 18.2326 19.2744 18.3422C19.3018 18.4462 19.3538 18.5366 19.4305 18.6133C19.5072 18.69 19.5976 18.7365 19.7016 18.753C19.8112 18.7694 19.9289 18.7393 20.0549 18.6626L20.6547 18.297V18.5311V21.6367H19.8249C19.6496 21.6367 19.5154 21.6805 19.4223 21.7681C19.3292 21.8558 19.2826 21.9845 19.2826 22.1543C19.2826 22.3186 19.3292 22.4473 19.4223 22.5404Z" fill="#F2713A"/>
</svg>
