<svg width="36" height="36" viewBox="0 0 36 36" fill="none" xmlns="http://www.w3.org/2000/svg">
<circle cx="18" cy="18" r="18" fill="#11D3B0"/>
<circle cx="11.8913" cy="10.8913" r="2.1913" stroke="white" stroke-width="1.4"/>
<path d="M14.373 10.8916H22.2209" stroke="white" stroke-width="1.4"/>
<mask id="path-4-inside-1" fill="white">
<path d="M9 23C9 22.4477 9.44772 22 10 22H13C13.5523 22 14 22.4477 14 23V26C14 26.5523 13.5523 27 13 27H10C9.44772 27 9 26.5523 9 26V23Z"/>
</mask>
<path d="M10 23.4H13V20.6H10V23.4ZM12.6 23V26H15.4V23H12.6ZM13 25.6H10V28.4H13V25.6ZM10.4 26V23H7.6V26H10.4ZM10 25.6C10.2209 25.6 10.4 25.7791 10.4 26H7.6C7.6 27.3255 8.67452 28.4 10 28.4V25.6ZM12.6 26C12.6 25.7791 12.7791 25.6 13 25.6V28.4C14.3255 28.4 15.4 27.3255 15.4 26H12.6ZM13 23.4C12.7791 23.4 12.6 23.2209 12.6 23H15.4C15.4 21.6745 14.3255 20.6 13 20.6V23.4ZM10 20.6C8.67452 20.6 7.6 21.6745 7.6 23H10.4C10.4 23.2209 10.2209 23.4 10 23.4V20.6Z" fill="white" mask="url(#path-4-inside-1)"/>
<circle cx="23.4564" cy="24.1087" r="2.1913" transform="rotate(-180 23.4564 24.1087)" stroke="white" stroke-width="1.4"/>
<path d="M20.9785 24.1084L13.1307 24.1084" stroke="white" stroke-width="1.4"/>
<path d="M21.5 17.5L21.5 16.8L21.5 17.5ZM10.8 20.5L10.8 22L12.2 22L12.2 20.5L10.8 20.5ZM23.8 13V14.5H25.2V13H23.8ZM21.5 16.8L14.5 16.8L14.5 18.2L21.5 18.2L21.5 16.8ZM23.8 14.5C23.8 15.7702 22.7703 16.8 21.5 16.8L21.5 18.2C23.5435 18.2 25.2 16.5434 25.2 14.5H23.8ZM12.2 20.5C12.2 19.2298 13.2297 18.2 14.5 18.2L14.5 16.8C12.4565 16.8 10.8 18.4566 10.8 20.5L12.2 20.5Z" fill="white"/>
<mask id="path-9-inside-2" fill="white">
<path d="M22 9C22 8.44772 22.4477 8 23 8H26C26.5523 8 27 8.44772 27 9V12C27 12.5523 26.5523 13 26 13H23C22.4477 13 22 12.5523 22 12V9Z"/>
</mask>
<path d="M23 9.4H26V6.6H23V9.4ZM25.6 9V12H28.4V9H25.6ZM26 11.6H23V14.4H26V11.6ZM23.4 12V9H20.6V12H23.4ZM23 11.6C23.2209 11.6 23.4 11.7791 23.4 12H20.6C20.6 13.3255 21.6745 14.4 23 14.4V11.6ZM25.6 12C25.6 11.7791 25.7791 11.6 26 11.6V14.4C27.3255 14.4 28.4 13.3255 28.4 12H25.6ZM26 9.4C25.7791 9.4 25.6 9.22091 25.6 9H28.4C28.4 7.67452 27.3255 6.6 26 6.6V9.4ZM23 6.6C21.6745 6.6 20.6 7.67452 20.6 9H23.4C23.4 9.22091 23.2209 9.4 23 9.4V6.6Z" fill="white" mask="url(#path-9-inside-2)"/>
</svg>
