<svg width="36" height="36" viewBox="0 0 36 36" fill="none" xmlns="http://www.w3.org/2000/svg">
<circle cx="18" cy="18" r="18" fill="#0085FF"/>
<path d="M15.8691 24.9599C15.8691 25.155 15.9867 25.3311 16.167 25.4058C16.2268 25.4305 16.2894 25.4425 16.3517 25.4425C16.4772 25.4425 16.6007 25.3934 16.693 25.3012L19.4472 22.547H23.1079C23.303 22.547 23.4791 22.4294 23.5538 22.2491C23.6285 22.0688 23.5872 21.8613 23.4492 21.7233L16.693 14.9671C16.555 14.8291 16.3471 14.7876 16.1672 14.8625C15.9867 14.937 15.8691 15.1131 15.8691 15.3082V24.9599ZM16.8343 16.4734L21.9427 21.5818H19.2472C19.1192 21.5818 18.9965 21.6326 18.9059 21.7231L16.8343 23.7947V16.4734Z" fill="#FFFCF8"/>
<path d="M18.7646 15.3083C18.7646 15.5748 18.9807 15.7908 19.2472 15.7908H21.1776C21.4441 15.7908 21.6601 15.5748 21.6601 15.3083C21.6601 15.0417 21.4441 14.8257 21.1776 14.8257H19.2472C18.9807 14.8257 18.7646 15.0417 18.7646 15.3083Z" fill="#FFFCF8"/>
<path d="M11.043 15.3083C11.043 15.5748 11.259 15.7908 11.5256 15.7908H13.4559C13.7225 15.7908 13.9385 15.5748 13.9385 15.3083C13.9385 15.0417 13.7225 14.8257 13.4559 14.8257H11.5256C11.259 14.8257 11.043 15.0417 11.043 15.3083Z" fill="#FFFCF8"/>
<path d="M16.3517 12.8955C16.6183 12.8955 16.8343 12.6795 16.8343 12.4129V10.4826C16.8343 10.216 16.6183 10 16.3517 10C16.0851 10 15.8691 10.216 15.8691 10.4826V12.4129C15.8691 12.6795 16.0851 12.8955 16.3517 12.8955Z" fill="#FFFCF8"/>
<path d="M19.388 11.589L17.9403 13.0368C17.7517 13.2252 17.7517 13.5307 17.9403 13.7191C18.0345 13.8135 18.158 13.8606 18.2816 13.8606C18.4051 13.8606 18.5286 13.8135 18.6228 13.7193L20.0706 12.2716C20.2592 12.0832 20.2592 11.7776 20.0706 11.5892C19.8822 11.4006 19.5764 11.4006 19.388 11.589Z" fill="#FFFCF8"/>
<path d="M14.0794 16.8974L12.6317 18.3451C12.4431 18.5335 12.4431 18.8391 12.6317 19.0275C12.7259 19.1219 12.8494 19.169 12.973 19.169C13.0965 19.169 13.22 19.1219 13.3142 19.0277L14.762 17.5799C14.9506 17.3915 14.9506 17.086 14.762 16.8976C14.5736 16.709 14.2678 16.709 14.0794 16.8974Z" fill="#FFFCF8"/>
<path d="M14.7618 13.0367L13.3141 11.589C13.1257 11.4004 12.8199 11.4004 12.6317 11.589C12.4431 11.7774 12.4431 12.0829 12.6317 12.2713L14.0794 13.7191C14.1734 13.8135 14.297 13.8606 14.4205 13.8606C14.5441 13.8606 14.6676 13.8135 14.7618 13.7193C14.9502 13.5309 14.9502 13.2251 14.7618 13.0367Z" fill="#FFFCF8"/>
<path fill-rule="evenodd" clip-rule="evenodd" d="M23.6669 7.40744C23.524 7.70644 23.1659 7.83304 22.8669 7.69021C18.6286 5.66556 13.3996 6.40952 9.89045 9.91867C7.48291 12.3262 6.37719 15.5417 6.57369 18.6936C6.58496 18.8743 6.60051 19.0548 6.62034 19.2349C6.65661 19.5643 6.41899 19.8607 6.08961 19.897C5.76023 19.9333 5.46382 19.6957 5.42755 19.3663C5.40564 19.1673 5.38846 18.9679 5.37602 18.7683C5.159 15.2874 6.38083 11.7312 9.04192 9.07014C12.9219 5.19021 18.7014 4.37043 23.3841 6.60741C23.6831 6.75025 23.8097 7.10843 23.6669 7.40744ZM29.8998 16.7128C30.2307 16.6945 30.5137 16.9478 30.5321 17.2787C30.7233 20.7315 29.4998 24.2505 26.861 26.8892C22.9811 30.7692 17.2016 31.5889 12.5188 29.352C12.2198 29.2091 12.0932 28.8509 12.236 28.5519C12.3789 28.2529 12.7371 28.1263 13.0361 28.2692C17.2743 30.2938 22.5033 29.5499 26.0125 26.0407C28.3998 23.6533 29.5071 20.4715 29.3339 17.3451C29.3156 17.0142 29.5689 16.7311 29.8998 16.7128Z" fill="white"/>
<path d="M28.4662 17.4311L28.6723 17.4116L31.112 17.2085L31.4389 17.1801C31.6789 17.1623 31.7956 16.9664 31.8343 16.9005C31.8731 16.8345 31.9392 16.6177 31.7999 16.4198L30.1118 13.996C29.9717 13.7987 29.768 13.7837 29.6819 13.7949C29.5957 13.8062 29.4055 13.8442 29.2864 14.0746L28.0018 16.7494C27.8833 16.9805 27.9888 17.1753 28.0363 17.23C28.0837 17.2848 28.2255 17.4481 28.4662 17.4311Z" fill="white"/>
<path d="M7.53385 18.4308L7.32769 18.4503L4.88797 18.6534L4.56111 18.6817C4.32105 18.6995 4.20437 18.8954 4.16565 18.9613C4.12694 19.0273 4.0608 19.2441 4.2001 19.442L5.88824 21.8659C6.02826 22.0631 6.23195 22.0781 6.31814 22.0669C6.40432 22.0556 6.59445 22.0176 6.7136 21.7872L7.9982 19.1124C8.11671 18.8813 8.01121 18.6865 7.96375 18.6318C7.91629 18.5771 7.77452 18.4137 7.53385 18.4308Z" fill="white"/>
</svg>
