<svg width="36" height="36" viewBox="0 0 36 36" fill="none" xmlns="http://www.w3.org/2000/svg">
<circle cx="18" cy="18" r="18" fill="#DF59CA"/>
<path d="M15.6504 27.8212C15.6504 28.0725 15.8017 28.2991 16.0338 28.3953C16.1109 28.4271 16.1914 28.4425 16.2716 28.4425C16.4332 28.4425 16.5922 28.3794 16.711 28.2606L20.2566 24.7149H24.9692C25.2205 24.7149 25.4471 24.5636 25.5433 24.3315C25.6394 24.0994 25.5863 23.8323 25.4086 23.6546L16.711 14.957C16.5333 14.7793 16.2657 14.7259 16.0341 14.8223C15.8017 14.9182 15.6504 15.1449 15.6504 15.3961V27.8212ZM16.8929 16.8961L23.4693 23.4724H19.9992C19.8344 23.4724 19.6764 23.5378 19.5598 23.6543L16.8929 26.3213V16.8961Z" fill="#FFFCF8"/>
<path d="M19.3779 15.3962C19.3779 15.7393 19.656 16.0174 19.9992 16.0174H22.4842C22.8274 16.0174 23.1055 15.7393 23.1055 15.3962C23.1055 15.053 22.8274 14.7749 22.4842 14.7749H19.9992C19.656 14.7749 19.3779 15.053 19.3779 15.3962Z" fill="#FFFCF8"/>
<path d="M9.4375 15.3962C9.4375 15.7393 9.71557 16.0174 10.0588 16.0174H12.5438C12.887 16.0174 13.165 15.7393 13.165 15.3962C13.165 15.053 12.887 14.7749 12.5438 14.7749H10.0588C9.71557 14.7749 9.4375 15.053 9.4375 15.3962Z" fill="#FFFCF8"/>
<path d="M16.2716 12.29C16.6148 12.29 16.8929 12.012 16.8929 11.6688V9.18376C16.8929 8.84057 16.6148 8.5625 16.2716 8.5625C15.9285 8.5625 15.6504 8.84057 15.6504 9.18376V11.6688C15.6504 12.012 15.9285 12.29 16.2716 12.29Z" fill="#FFFCF8"/>
<path d="M20.1806 10.6081L18.3169 12.4719C18.0741 12.7144 18.0741 13.1078 18.3169 13.3504C18.4381 13.4719 18.5972 13.5325 18.7562 13.5325C18.9152 13.5325 19.0743 13.4719 19.1956 13.3506L21.0593 11.4868C21.3021 11.2443 21.3021 10.8509 21.0593 10.6084C20.8168 10.3656 20.4232 10.3656 20.1806 10.6081Z" fill="#FFFCF8"/>
<path d="M13.3466 17.4419L11.4829 19.3056C11.2401 19.5482 11.2401 19.9416 11.4829 20.1841C11.6041 20.3056 11.7632 20.3663 11.9222 20.3663C12.0813 20.3663 12.2403 20.3056 12.3616 20.1844L14.2253 18.3206C14.4681 18.078 14.4681 17.6847 14.2253 17.4421C13.9828 17.1993 13.5892 17.1993 13.3466 17.4419Z" fill="#FFFCF8"/>
<path d="M14.2251 12.4719L12.3613 10.6081C12.1188 10.3653 11.7252 10.3653 11.4829 10.6081C11.2401 10.8507 11.2401 11.244 11.4829 11.4866L13.3466 13.3503C13.4677 13.4719 13.6267 13.5325 13.7857 13.5325C13.9448 13.5325 14.1038 13.4719 14.2251 13.3506C14.4676 13.108 14.4676 12.7144 14.2251 12.4719Z" fill="#FFFCF8"/>
</svg>
