<svg width="148" height="125" viewBox="0 0 148 125" fill="none" xmlns="http://www.w3.org/2000/svg">
<path d="M74 125C114.869 125 148 118.381 148 110.215C148 102.049 114.869 95.43 74 95.43C33.1309 95.43 0 102.049 0 110.215C0 118.381 33.1309 125 74 125Z" fill="#E3E8F4"/>
<path d="M121.091 0H26.9089V110.215H121.091V0Z" fill="#C1C8D8"/>
<path d="M107.659 17.549H63.203V23.174H107.659V17.549Z" fill="white"/>
<path d="M96.545 28.652H63.203V34.277H96.545V28.652Z" fill="white"/>
<path d="M107.659 47.772H63.203V53.397H107.659V47.772Z" fill="white"/>
<path d="M96.545 58.875H63.203V64.5H96.545V58.875Z" fill="white"/>
<path d="M107.659 78.291H63.203V83.916H107.659V78.291Z" fill="white"/>
<path d="M96.545 89.393H63.203V95.018H96.545V89.393Z" fill="white"/>
<path d="M49.05 31C52.9198 31 56.057 27.866 56.057 24C56.057 20.134 52.9198 17 49.05 17C45.1801 17 42.043 20.134 42.043 24C42.043 27.866 45.1801 31 49.05 31Z" fill="white"/>
<path d="M49.05 62C52.9198 62 56.057 58.866 56.057 55C56.057 51.134 52.9198 48 49.05 48C45.1801 48 42.043 51.134 42.043 55C42.043 58.866 45.1801 62 49.05 62Z" fill="white"/>
<path d="M49.05 92C52.9198 92 56.057 88.866 56.057 85C56.057 81.134 52.9198 78 49.05 78C45.1801 78 42.043 81.134 42.043 85C42.043 88.866 45.1801 92 49.05 92Z" fill="white"/>
</svg>
