<svg width="100" height="100" viewBox="0 0 100 100" fill="none" xmlns="http://www.w3.org/2000/svg">
<path d="M100 0H0V100H100V0Z" fill="#DBE1F0"/>
<path d="M49.5363 18.9219C59.3347 18.9219 67.2782 26.848 67.2782 36.625C67.2782 46.402 59.3347 54.3281 49.5363 54.3281C39.7379 54.3281 31.7944 46.402 31.7944 36.625C31.7944 26.848 39.7379 18.9219 49.5363 18.9219ZM49.5363 88.125C37.7016 88.125 27.0968 82.7738 20 74.4051C23.7903 67.2836 31.2097 62.375 39.8589 62.375C40.3427 62.375 40.8266 62.4555 41.2903 62.5963C43.9113 63.4412 46.6532 63.9844 49.5363 63.9844C52.4194 63.9844 55.1815 63.4412 57.7823 62.5963C58.246 62.4555 58.7298 62.375 59.2137 62.375C67.8629 62.375 75.2823 67.2836 79.0726 74.4051C71.9758 82.7738 61.371 88.125 49.5363 88.125Z" fill="white"/>
</svg>
