<svg width="36" height="36" viewBox="0 0 36 36" fill="none" xmlns="http://www.w3.org/2000/svg">
<circle cx="18" cy="18" r="18" fill="#71A4BA"/>
<path d="M9.85115 17.6908L9.8974 17.5481C9.37619 17.3792 8.77446 17.3973 8.25482 17.6674C7.74608 17.9319 7.33366 18.3585 7.14299 18.9185L7.14299 18.9185L7.1426 18.9197C6.96829 19.4457 6.97726 20.0515 7.23825 20.5723C7.49375 21.0821 7.91223 21.4935 8.46725 21.6785L8.46846 21.6789C8.98966 21.8479 9.5914 21.8297 10.111 21.5596C10.6198 21.2951 11.0322 20.8685 11.2229 20.3085L11.223 20.3086L11.2249 20.3021C11.2784 20.1185 11.3263 19.9033 11.342 19.7002L15.202 18.651C15.2115 18.6721 15.2232 18.6962 15.2376 18.7191C15.4787 19.2123 15.8179 19.6256 16.2065 19.9571L14.3841 23.1136C13.2985 22.806 12.0874 23.2896 11.4969 24.3125C10.7857 25.5444 11.185 27.0948 12.4022 27.7975C13.6193 28.5002 15.1617 28.0709 15.8729 26.839C16.4652 25.813 16.2698 24.5797 15.5101 23.7705L17.3204 20.633C17.8357 20.8241 18.3912 20.8968 18.934 20.8387L19.9652 24.6756C19.5748 24.924 19.2558 25.297 19.0939 25.7886C18.9196 26.3147 18.9286 26.9204 19.1895 27.4412C19.445 27.951 19.8635 28.3624 20.4185 28.5475L20.4197 28.5478C20.941 28.7168 21.5427 28.6986 22.0623 28.4285C22.5711 28.164 22.9835 27.7374 23.1742 27.1774L23.1745 27.1763C23.3489 26.6502 23.3399 26.0444 23.0789 25.5237C22.8234 25.0138 22.4049 24.6025 21.8499 24.4174L21.8499 24.4173L21.8433 24.4154C21.6624 24.3642 21.4503 24.319 21.2495 24.3058L20.215 20.4595C20.237 20.4493 20.2625 20.4365 20.2866 20.4208C21.1876 19.9475 21.8783 19.19 22.2144 18.2242L22.2145 18.2242L22.2157 18.2205C22.2546 18.0984 22.2874 17.9736 22.3176 17.855C22.3226 17.8354 22.3275 17.816 22.3324 17.7969C22.3473 17.7382 22.3617 17.6815 22.3762 17.627L25.8564 17.5996C26.0045 18.0604 26.305 18.436 26.6824 18.7144L26.6824 18.7145L26.6873 18.7178C27.6785 19.3906 29.0239 19.0999 29.6877 18.1205L29.6877 18.1205L29.6898 18.1173C29.997 17.6378 30.1256 17.0766 29.9985 16.5008C29.894 15.9396 29.5567 15.4489 29.0996 15.118L29.0933 15.1135L29.0866 15.1096L28.949 15.0302C28.4835 14.7614 27.9982 14.683 27.4671 14.8081C26.9094 14.9212 26.4194 15.2672 26.0858 15.7306C25.9691 15.8852 25.8655 16.0934 25.8158 16.2913L22.3655 16.3185C22.3148 15.9793 22.1987 15.6333 22.0241 15.3054C21.7826 14.8091 21.461 14.404 21.0528 14.0609L22.0339 12.3614C22.5129 12.4569 22.9974 12.388 23.4429 12.1873L23.4429 12.1874L23.4478 12.185C24.502 11.6633 24.9727 10.3404 24.4684 9.28155L24.4685 9.28148L24.4654 9.27559C24.2652 8.89936 23.9712 8.56208 23.5994 8.3474C23.0077 8.0058 22.2458 7.96601 21.5774 8.27659L21.5773 8.27655L21.574 8.27819C20.5204 8.79965 20.0497 10.1213 20.5527 11.1799C20.6384 11.3719 20.7608 11.5358 20.8939 11.6772L19.9138 13.3747C19.9099 13.3736 19.9064 13.3724 19.9028 13.3713C19.9008 13.3706 19.8993 13.3701 19.8981 13.3697L19.8925 13.3665L19.8795 13.3619C19.0486 13.0675 18.1548 13.0876 17.3275 13.3839L15.6164 10.3656C15.7492 10.2146 15.8711 10.0431 15.9663 9.87832L15.9666 9.87852L15.9715 9.86853C16.4728 8.82999 16.0967 7.61108 15.1356 7.05622L14.9981 6.9768L14.9983 6.97645L14.9884 6.9717C13.9109 6.44997 12.6306 6.91133 12.1003 7.99985L12.1003 7.99986C11.5702 9.08812 12.0049 10.3742 13.0818 10.8966C13.5297 11.1233 14.0009 11.1634 14.4672 11.0581L16.176 14.0725C15.6517 14.5077 15.241 15.0907 15.0206 15.7827C14.8365 16.3055 14.7807 16.8433 14.8114 17.3727L10.9912 18.4111C10.7497 18.0212 10.3835 17.7046 9.89711 17.548L9.85115 17.6908ZM9.85115 17.6908C10.3393 17.8479 10.6971 18.1792 10.9195 18.586L11.1973 19.5841C11.1945 19.7992 11.1428 20.0477 11.0809 20.2602C10.9045 20.7782 10.5218 21.177 10.0418 21.4265C9.56192 21.676 9.00229 21.6943 8.5147 21.5362C8.00335 21.3657 7.61309 20.9854 7.37235 20.5051C7.1316 20.0247 7.12135 19.4607 7.28499 18.9668C7.46135 18.4489 7.84407 18.05 8.324 17.8005C8.80393 17.551 9.36356 17.5328 9.85115 17.6908ZM8.88988 20.4053L8.88731 20.4045C8.69955 20.346 8.5278 20.1991 8.41791 19.9726L8.41406 19.9647L8.4093 19.9572C8.39283 19.9315 8.37965 19.8862 8.35751 19.8041C8.31127 19.6252 8.33655 19.492 8.38275 19.3108C8.44457 19.121 8.59243 18.947 8.81572 18.8335C9.0341 18.7392 9.25629 18.7143 9.46786 18.7843C9.89578 18.9281 10.1386 19.4025 9.97921 19.8641C9.88058 20.0796 9.72506 20.2552 9.54022 20.3571C9.32242 20.4507 9.10086 20.4752 8.88988 20.4053ZM21.7697 10.5746L21.7697 10.5746L21.7691 10.5733C21.5715 10.1791 21.7621 9.68886 22.1833 9.46925C22.5839 9.26099 23.0741 9.43323 23.2809 9.84464C23.4808 10.2438 23.3054 10.7423 22.8942 10.9596C22.6804 11.0517 22.463 11.0773 22.2554 11.0123C22.2119 10.9892 22.1725 10.9766 22.1441 10.9679C22.1186 10.9601 22.108 10.9567 22.1024 10.9545C21.9485 10.8357 21.8385 10.7153 21.7697 10.5746ZM19.7234 19.1993L19.7234 19.1993L19.7202 19.2009C18.9552 19.5789 18.0847 19.5426 17.3732 19.1318C16.9664 18.8969 16.6099 18.5161 16.3801 18.0614C16.0953 17.457 16.0511 16.7893 16.2721 16.1579C16.495 15.5211 16.9457 14.9935 17.5294 14.7229L17.5295 14.7228C18.119 14.4489 18.8073 14.4054 19.4469 14.5983C20.0724 14.8138 20.5871 15.259 20.8465 15.8419L20.8465 15.842L20.8479 15.845C21.1334 16.4498 21.178 17.1183 20.9567 17.7503L20.9566 17.7505C20.7337 18.3908 20.3043 18.9294 19.7234 19.1993ZM21.3829 25.6967L21.3827 25.6971L21.3938 25.7005C21.5805 25.7587 21.7514 25.9042 21.8613 26.1286C21.9516 26.347 21.9736 26.5715 21.9004 26.7877L21.8996 26.7902C21.8383 26.9826 21.6886 27.1591 21.4617 27.2734L21.4539 27.2773L21.4467 27.2821C21.4204 27.2994 21.3749 27.3134 21.2934 27.3368C21.1158 27.3858 20.9848 27.3623 20.8063 27.3185C20.6212 27.2595 20.452 27.1144 20.3428 26.8917C20.2527 26.6736 20.2306 26.4494 20.3034 26.2334C20.4699 25.763 20.9512 25.5247 21.3829 25.6967Z" fill="white" stroke="white" stroke-width="0.3"/>
<circle cx="9" cy="19.5" r="2.5" fill="white"/>
<path fill-rule="evenodd" clip-rule="evenodd" d="M22.1144 9.33629C21.6339 9.58673 21.3945 10.1603 21.6353 10.6407C21.7194 10.8127 21.852 10.9522 22.0224 11.0821C22.0428 11.0939 22.066 11.1009 22.0916 11.1087C22.123 11.1183 22.158 11.1289 22.1959 11.1508C22.4519 11.2356 22.7143 11.2019 22.9593 11.0952C23.4398 10.8448 23.656 10.2578 23.4152 9.77742C23.1736 9.29651 22.5943 9.0868 22.1144 9.33629ZM16.2455 18.1273C15.9439 17.4883 15.896 16.7791 16.1308 16.1084C16.3656 15.4377 16.8421 14.8764 17.4666 14.5869C18.0917 14.2965 18.8191 14.2516 19.4933 14.4557C20.1553 14.6829 20.7055 15.1555 20.9838 15.7811C21.2855 16.4201 21.3334 17.1293 21.0986 17.8C20.8652 18.4703 20.4119 19.045 19.7869 19.3355C18.977 19.7358 18.0533 19.6976 17.2985 19.2618C16.8644 19.0112 16.4877 18.6073 16.2455 18.1273ZM21.9985 26.067C21.8728 25.8081 21.6709 25.6298 21.4387 25.5574C20.9178 25.3499 20.3528 25.6435 20.1619 26.1846C20.0742 26.4439 20.1039 26.708 20.2063 26.9535C20.332 27.2125 20.5339 27.3908 20.7661 27.4631C20.9527 27.5091 21.1161 27.5417 21.3344 27.4813L21.3426 27.479C21.4126 27.4589 21.4814 27.4392 21.5295 27.4075C21.7881 27.2772 21.9679 27.0711 22.0429 26.836C22.1306 26.5767 22.1008 26.3126 21.9985 26.067Z" fill="#71A4BA"/>
<path d="M8.63022 20.5C8.88617 20.5848 9.14859 20.5511 9.39361 20.4444C9.61541 20.3243 9.79514 20.1182 9.9061 19.8723C10.097 19.3313 9.81369 18.7658 9.30286 18.5943C9.04692 18.5095 8.7845 18.5432 8.53948 18.6499C8.28082 18.7803 8.10108 18.9864 8.02607 19.2215C7.9778 19.4103 7.94316 19.5755 8 19.7948L8.00223 19.803C8.02115 19.8733 8.03974 19.9424 8.07047 19.9904C8.1961 20.2494 8.39804 20.4277 8.63022 20.5Z" fill="#71A4BA"/>
</svg>
