<svg width="37" height="37" viewBox="0 0 37 37" fill="none" xmlns="http://www.w3.org/2000/svg">
<path fill-rule="evenodd" clip-rule="evenodd" d="M18.5625 36.9221C28.5036 36.9221 36.5625 28.8632 36.5625 18.9221C36.5625 8.98099 28.5036 0.922119 18.5625 0.922119C8.62137 0.922119 0.5625 8.98099 0.5625 18.9221C0.5625 28.8632 8.62137 36.9221 18.5625 36.9221ZM17.6387 13.804C18.5508 13.804 19.3204 13.1933 19.5608 12.3585C21.3927 12.2308 23.0613 12.78 24.1786 13.8335C23.9826 14.1427 23.8691 14.5094 23.8691 14.9026C23.8691 15.9278 24.6405 16.7729 25.6346 16.889C25.7845 18.3881 25.3448 20.0678 24.2867 21.5791C24.152 21.5505 24.0123 21.5354 23.8691 21.5354C22.7646 21.5354 21.8691 22.4308 21.8691 23.5354C21.8691 23.6636 21.8812 23.789 21.9043 23.9105C20.2597 25.0387 18.5088 25.5293 16.9224 25.5031C16.6623 24.7006 15.9087 24.1204 15.0195 24.1204C14.5212 24.1204 14.0655 24.3026 13.7153 24.6041C13.1735 24.2641 12.7096 23.8346 12.3498 23.3272C11.8497 22.622 11.5582 21.7769 11.4815 20.8685C12.3633 20.66 13.0195 19.8677 13.0195 18.9221C13.0195 18.2645 12.7021 17.6809 12.2121 17.3164C12.8083 16.1146 13.7632 14.9652 15.0894 14.0248C15.4875 13.7425 15.8922 13.4981 16.2998 13.2897C16.6543 13.6094 17.1238 13.804 17.6387 13.804ZM11.0446 24.2526C10.2647 23.1528 9.87918 21.8738 9.8526 20.5466C9.34806 20.1835 9.01953 19.5912 9.01953 18.9221C9.01953 17.9551 9.7058 17.1484 10.6179 16.9625C11.3344 15.3662 12.5378 13.8727 14.164 12.7196C14.642 12.3806 15.1357 12.0859 15.6389 11.8349L15.6387 11.804C15.6387 10.6994 16.5341 9.80396 17.6387 9.80396C18.3673 9.80396 19.0049 10.1936 19.3546 10.7759C21.752 10.5758 24.0269 11.3093 25.5398 12.9296C25.647 12.9118 25.757 12.9026 25.8691 12.9026C26.9737 12.9026 27.8691 13.798 27.8691 14.9026C27.8691 15.4976 27.6093 16.032 27.1968 16.3984C27.4944 18.4082 26.9125 20.6051 25.5825 22.5032C25.7645 22.8045 25.8691 23.1577 25.8691 23.5354C25.8691 24.64 24.9737 25.5354 23.8691 25.5354C23.4793 25.5354 23.1154 25.4238 22.8078 25.2309C20.9 26.5375 18.7561 27.1502 16.765 27.0976C16.4225 27.7079 15.7692 28.1204 15.0195 28.1204C13.915 28.1204 13.0195 27.2249 13.0195 26.1204C13.0195 26.1022 13.0198 26.0842 13.0203 26.0662C12.2506 25.6099 11.5776 25.0044 11.0446 24.2526ZM17.6391 12.4039C17.9704 12.4039 18.2391 12.1352 18.2391 11.8039C18.2391 11.4725 17.9704 11.2039 17.6391 11.2039C17.3077 11.2039 17.0391 11.4725 17.0391 11.8039C17.0391 12.1352 17.3077 12.4039 17.6391 12.4039ZM26.4695 14.9025C26.4695 15.2339 26.2009 15.5025 25.8695 15.5025C25.5382 15.5025 25.2695 15.2339 25.2695 14.9025C25.2695 14.5711 25.5382 14.3025 25.8695 14.3025C26.2009 14.3025 26.4695 14.5711 26.4695 14.9025ZM23.8695 24.1353C24.2009 24.1353 24.4695 23.8667 24.4695 23.5353C24.4695 23.2039 24.2009 22.9353 23.8695 22.9353C23.5382 22.9353 23.2695 23.2039 23.2695 23.5353C23.2695 23.8667 23.5382 24.1353 23.8695 24.1353ZM15.6199 26.1203C15.6199 26.4516 15.3513 26.7203 15.0199 26.7203C14.6886 26.7203 14.4199 26.4516 14.4199 26.1203C14.4199 25.7889 14.6886 25.5203 15.0199 25.5203C15.3513 25.5203 15.6199 25.7889 15.6199 26.1203ZM11.0199 19.522C11.3513 19.522 11.6199 19.2534 11.6199 18.922C11.6199 18.5907 11.3513 18.322 11.0199 18.322C10.6886 18.322 10.4199 18.5907 10.4199 18.922C10.4199 19.2534 10.6886 19.522 11.0199 19.522Z" fill="#7D7FEF"/>
</svg>
