<svg width="36" height="36" viewBox="0 0 36 36" fill="none" xmlns="http://www.w3.org/2000/svg">
<circle cx="18" cy="18" r="18" fill="#1BA8D5"/>
<line x1="15.5" y1="17.5" x2="20.5" y2="17.5" stroke="white" stroke-linecap="round"/>
<line x1="15.5" y1="19.5" x2="20.5" y2="19.5" stroke="white" stroke-linecap="round"/>
<line x1="15.5" y1="21.5" x2="20.5" y2="21.5" stroke="white" stroke-linecap="round"/>
<path fill-rule="evenodd" clip-rule="evenodd" d="M11 10.7996C11 10.358 11.358 10 11.7996 10H21.3456C21.5577 10 21.7611 10.0842 21.9111 10.2342L24.9658 13.2889C25.1158 13.4389 25.2 13.6423 25.2 13.8544V25.3095C25.2 25.7512 24.842 26.1092 24.4004 26.1092H11.7996C11.358 26.1092 11 25.7512 11 25.3095V10.7996ZM12.5993 11.5993V24.5099H23.6007V15.4177H20.582C20.1403 15.4177 19.7823 15.0597 19.7823 14.618V11.5993H12.5993ZM23.5398 13.9453L21.2547 11.6602V13.9453H23.5398Z" fill="white"/>
</svg>
