<svg width="36" height="36" viewBox="0 0 36 36" fill="none" xmlns="http://www.w3.org/2000/svg">
<path fill-rule="evenodd" clip-rule="evenodd" d="M18 36C27.9411 36 36 27.9411 36 18C36 8.05887 27.9411 0 18 0C8.05887 0 0 8.05887 0 18C0 27.9411 8.05887 36 18 36ZM27.4004 10.1579C27.4004 9.9296 27.2814 9.7175 27.0862 9.59736C26.8907 9.47743 26.6469 9.46699 26.4416 9.56859L25.191 10.1908V9.05894C25.191 8.83064 25.0719 8.61847 24.8767 8.49833C24.6809 8.37813 24.4373 8.36801 24.2322 8.46962L17.9004 11.6192L11.5682 8.46955C11.3631 8.36795 11.1193 8.37817 10.9237 8.49843C10.7288 8.61857 10.6098 8.83066 10.6098 9.05894V10.1908L9.35877 9.56851C9.15366 9.46688 8.90962 9.47741 8.71426 9.59739C8.51934 9.71753 8.40039 9.92962 8.40039 10.1579V23.3454C8.40039 23.595 8.54211 23.8232 8.76657 23.9348L17.6042 28.3306C17.6974 28.3769 17.7989 28.4001 17.9004 28.4001C18.0019 28.4001 18.1033 28.3769 18.1966 28.3306L27.0343 23.9347C27.2586 23.823 27.4004 23.595 27.4004 23.3454V10.1579ZM17.7296 25.9033C17.7351 25.9052 17.745 25.9085 17.7567 25.911C17.8017 25.921 17.8496 25.9275 17.9004 25.9275C17.9512 25.9275 17.9997 25.9208 18.0447 25.9109C18.0557 25.9084 18.0652 25.9052 18.0706 25.9034L18.0814 25.8999C18.1113 25.8914 18.1435 25.8809 18.1757 25.8662L18.1808 25.8646C18.1847 25.8632 18.1903 25.861 18.1966 25.8579L24.8249 22.561C25.0492 22.4493 25.191 22.2213 25.191 21.9717V11.6641L26.0757 11.224V22.9382L17.9004 27.0046L9.72506 22.9382V11.224L10.6098 11.6641V21.9717C10.6098 22.2213 10.7516 22.4495 10.976 22.5611L17.6042 25.8579C17.6108 25.8612 17.6166 25.8634 17.6205 25.8648L17.6249 25.8661C17.6572 25.8809 17.6894 25.8914 17.7194 25.9L17.7209 25.9004L17.7227 25.9009L17.7296 25.9033ZM18.5627 24.2025V12.763L23.8663 10.125V21.5645L18.5627 24.2025ZM11.9345 21.5645V10.125L17.2381 12.763V24.2025L11.9345 21.5645Z" fill="#0BC5F8"/>
</svg>
