<svg width="36" height="36" viewBox="0 0 36 36" fill="none" xmlns="http://www.w3.org/2000/svg">
<circle cx="18" cy="18" r="18" fill="#FFA41C"/>
<path d="M14.53 9.02222C10.3898 9.02222 7.02148 11.565 7.02148 14.6904C7.02148 16.6046 8.26356 18.3516 10.3586 19.4057V22.3829C10.3586 22.5467 10.4602 22.6944 10.6161 22.757C10.6678 22.7778 10.722 22.7878 10.7756 22.7878C10.8842 22.7878 10.9908 22.7467 11.0707 22.6693L13.5065 20.3053C13.8489 20.3408 14.1923 20.3586 14.53 20.3586C18.6702 20.3586 22.0385 17.8158 22.0385 14.6904C22.0385 11.565 18.6702 9.02222 14.53 9.02222ZM14.53 19.5488C14.1601 19.5488 13.7823 19.5252 13.4071 19.4787C13.2789 19.4622 13.1506 19.5053 13.0593 19.594L11.1929 21.4056V19.155C11.1929 18.999 11.1006 18.857 10.9558 18.7898C9.01458 17.8887 7.85576 16.3562 7.85576 14.6904C7.85576 12.0115 10.8498 9.83196 14.53 9.83196C18.2102 9.83196 21.2042 12.0115 21.2042 14.6904C21.2042 17.3693 18.2102 19.5488 14.53 19.5488Z" fill="white"/>
<path fill-rule="evenodd" clip-rule="evenodd" d="M10.5191 23.001C10.2671 22.8997 10.0969 22.6577 10.0969 22.3831V19.566C8.02367 18.472 6.75977 16.6832 6.75977 14.6905C6.75977 13.027 7.65671 11.5385 9.06593 10.4746C10.4751 9.41084 12.4091 8.75952 14.5311 8.75952C16.6532 8.75952 18.5871 9.41084 19.9963 10.4746C21.4055 11.5385 22.3025 13.027 22.3025 14.6905C22.3025 16.3541 21.4055 17.8426 19.9963 18.9065C18.5871 19.9703 16.6532 20.6216 14.5311 20.6216C14.2246 20.6216 13.9138 20.6073 13.6033 20.5789L11.2549 22.858C11.1242 22.9846 10.9511 23.0508 10.7767 23.0508C10.6903 23.0508 10.6026 23.0345 10.5191 23.001ZM13.5076 20.3054C13.85 20.3409 14.1934 20.3587 14.5311 20.3587C18.6713 20.3587 22.0396 17.816 22.0396 14.6905C22.0396 11.5651 18.6713 9.02236 14.5311 9.02236C10.3909 9.02236 7.0226 11.5651 7.0226 14.6905C7.0226 16.6048 8.26468 18.3517 10.3597 19.4058V22.3831C10.3597 22.5468 10.4613 22.6945 10.6172 22.7572C10.6689 22.7779 10.7231 22.788 10.7767 22.788C10.8853 22.788 10.9919 22.7468 11.0719 22.6694L13.5076 20.3054ZM13.4411 19.2181C13.8057 19.2632 14.1725 19.2862 14.5311 19.2862C16.3214 19.2862 17.9345 18.7556 19.0936 17.9119C20.2531 17.0678 20.9425 15.9251 20.9425 14.6905C20.9425 13.456 20.2531 12.3132 19.0936 11.4692C17.9345 10.6255 16.3214 10.0949 14.5311 10.0949C12.7408 10.0949 11.1277 10.6255 9.96862 11.4692C8.80915 12.3132 8.11972 13.456 8.11972 14.6905C8.11972 16.2231 9.18741 17.6788 11.0676 18.5515C11.3022 18.6605 11.4568 18.8937 11.4568 19.1551V20.7843L12.8772 19.4057M13.0604 19.5942C13.1517 19.5054 13.28 19.4623 13.4082 19.4789C13.7834 19.5253 14.1612 19.549 14.5311 19.549C18.2113 19.549 21.2053 17.3695 21.2053 14.6905C21.2053 12.0116 18.2113 9.8321 14.5311 9.8321C10.8509 9.8321 7.85688 12.0116 7.85688 14.6905C7.85688 16.3563 9.01569 17.8889 10.9569 18.7899C11.1017 18.8571 11.194 18.9992 11.194 19.1551V21.4057L13.0604 19.5942Z" fill="white"/>
<path d="M18.0298 13.0381H10.9098C10.7212 13.0381 10.5684 13.2215 10.5684 13.4478C10.5684 13.6741 10.7212 13.8575 10.9098 13.8575H18.0298C18.2184 13.8575 18.3712 13.6741 18.3712 13.4478C18.3712 13.2215 18.2184 13.0381 18.0298 13.0381Z" fill="white"/>
<path fill-rule="evenodd" clip-rule="evenodd" d="M10.9089 12.7749H18.029C18.4056 12.7749 18.6332 13.1229 18.6332 13.4474C18.6332 13.772 18.4056 14.12 18.029 14.12H10.9089C10.5323 14.12 10.3047 13.772 10.3047 13.4474C10.3047 13.1229 10.5323 12.7749 10.9089 12.7749ZM10.9089 13.0377H18.029C18.2176 13.0377 18.3704 13.2211 18.3704 13.4474C18.3704 13.6737 18.2176 13.8571 18.029 13.8571H10.9089C10.7203 13.8571 10.5675 13.6737 10.5675 13.4474C10.5675 13.2211 10.7203 13.0377 10.9089 13.0377Z" fill="white"/>
<path d="M15.5546 15.9058H10.9268C10.7288 15.9058 10.5684 16.0891 10.5684 16.3155C10.5684 16.5418 10.7288 16.7251 10.9268 16.7251H15.5546C15.7526 16.7251 15.9131 16.5418 15.9131 16.3155C15.9131 16.0891 15.7526 15.9058 15.5546 15.9058Z" fill="white"/>
<path fill-rule="evenodd" clip-rule="evenodd" d="M10.926 15.6431H15.5537C15.9288 15.6431 16.1751 15.9782 16.1751 16.3156C16.1751 16.653 15.9288 16.9881 15.5537 16.9881H10.926C10.5509 16.9881 10.3047 16.653 10.3047 16.3156C10.3047 15.9782 10.5509 15.6431 10.926 15.6431ZM10.926 15.9059H15.5537C15.7518 15.9059 15.9122 16.0893 15.9122 16.3156C15.9122 16.5419 15.7518 16.7253 15.5537 16.7253H10.926C10.728 16.7253 10.5675 16.5419 10.5675 16.3156C10.5675 16.0893 10.728 15.9059 10.926 15.9059Z" fill="white"/>
<path d="M30.066 18.7729C30.066 21.6239 26.7277 23.935 22.6097 23.935C18.4916 23.935 15.1533 21.6239 15.1533 18.7729C15.1533 15.922 18.4916 13.6108 22.6097 13.6108C26.7277 13.6108 30.066 15.922 30.066 18.7729Z" fill="#FFA41C"/>
<path d="M22.5589 13.6116C26.6991 13.6116 30.0674 16.1543 30.0674 19.2798C30.0674 21.194 28.8253 22.9409 26.7303 23.995V26.9723C26.7303 27.136 26.6287 27.2837 26.4728 27.3464C26.4211 27.3671 26.3669 27.3772 26.3133 27.3772C26.2047 27.3772 26.0981 27.336 26.0181 27.2586L23.5824 24.8947C23.24 24.9301 22.8966 24.9479 22.5589 24.9479C18.4187 24.9479 15.0504 22.4052 15.0504 19.2798C15.0504 16.1543 18.4187 13.6116 22.5589 13.6116ZM22.5589 24.1382C22.9288 24.1382 23.3066 24.1146 23.6818 24.0681C23.81 24.0516 23.9383 24.0946 24.0295 24.1834L25.896 25.9949V23.7443C25.896 23.5884 25.9883 23.4464 26.1331 23.3792C28.0743 22.4781 29.2331 20.9456 29.2331 19.2798C29.2331 16.6008 26.239 14.4213 22.5589 14.4213C18.8787 14.4213 15.8846 16.6008 15.8846 19.2798C15.8846 21.9587 18.8787 24.1382 22.5589 24.1382Z" fill="white"/>
<path fill-rule="evenodd" clip-rule="evenodd" d="M26.5698 27.5904C26.8218 27.489 26.992 27.247 26.992 26.9724V24.1554C29.0652 23.0613 30.3291 21.2725 30.3291 19.2799C30.3291 17.6164 29.4322 16.1278 28.0229 15.064C26.6138 14.0002 24.6798 13.3489 22.5578 13.3489C20.4357 13.3489 18.5018 14.0002 17.0926 15.064C15.6834 16.1278 14.7864 17.6164 14.7864 19.2799C14.7864 20.9434 15.6834 22.432 17.0926 23.4958C18.5018 24.5596 20.4357 25.2109 22.5578 25.2109C22.8642 25.2109 23.1751 25.1966 23.4856 25.1682L25.834 27.4474C25.9646 27.574 26.1377 27.6401 26.3122 27.6401C26.3985 27.6401 26.4863 27.6238 26.5698 27.5904ZM23.5812 24.8948C23.2389 24.9303 22.8955 24.9481 22.5578 24.9481C18.4176 24.9481 15.0493 22.4053 15.0493 19.2799C15.0493 16.1545 18.4176 13.6117 22.5578 13.6117C26.6979 13.6117 30.0663 16.1545 30.0663 19.2799C30.0663 21.1941 28.8242 22.9411 26.7292 23.9952V26.9724C26.7292 27.1362 26.6275 27.2839 26.4717 27.3465C26.42 27.3673 26.3657 27.3773 26.3122 27.3773C26.2036 27.3773 26.0969 27.3362 26.017 27.2588L23.5812 24.8948ZM23.6478 23.8075C23.2832 23.8526 22.9164 23.8755 22.5578 23.8755C20.7674 23.8755 19.1544 23.345 17.9953 22.5012C16.8358 21.6572 16.1464 20.5144 16.1464 19.2799C16.1464 18.0454 16.8358 16.9026 17.9953 16.0586C19.1544 15.2148 20.7674 14.6843 22.5578 14.6843C24.3481 14.6843 25.9611 15.2148 27.1202 16.0586C28.2797 16.9026 28.9691 18.0454 28.9691 19.2799C28.9691 20.8125 27.9015 22.2681 26.0213 23.1409C25.7866 23.2498 25.632 23.483 25.632 23.7445V25.3737L24.2117 23.9951M24.0284 24.1835C23.9372 24.0948 23.8088 24.0517 23.6807 24.0682C23.3054 24.1147 22.9277 24.1383 22.5578 24.1383C18.8776 24.1383 15.8835 21.9588 15.8835 19.2799C15.8835 16.601 18.8776 14.4215 22.5578 14.4215C26.2379 14.4215 29.232 16.601 29.232 19.2799C29.232 20.9457 28.0732 22.4782 26.132 23.3793C25.9871 23.4465 25.8949 23.5885 25.8949 23.7445V25.9951L24.0284 24.1835Z" fill="white"/>
<path d="M19.0612 17.6262H26.0531C26.2417 17.6262 26.3945 17.8096 26.3945 18.0359C26.3945 18.2622 26.2417 18.4456 26.0531 18.4456H19.0612C18.8726 18.4456 18.7198 18.2622 18.7198 18.0359C18.7198 17.8096 18.8726 17.6262 19.0612 17.6262Z" fill="white"/>
<path fill-rule="evenodd" clip-rule="evenodd" d="M26.053 17.3635H19.0611C18.6845 17.3635 18.4568 17.7115 18.4568 18.0361C18.4568 18.3606 18.6845 18.7086 19.0611 18.7086H26.053C26.4296 18.7086 26.6572 18.3606 26.6572 18.0361C26.6572 17.7115 26.4296 17.3635 26.053 17.3635ZM26.053 17.6264H19.0611C18.8725 17.6264 18.7197 17.8097 18.7197 18.0361C18.7197 18.2624 18.8725 18.4457 19.0611 18.4457H26.053C26.2416 18.4457 26.3944 18.2624 26.3944 18.0361C26.3944 17.8097 26.2416 17.6264 26.053 17.6264Z" fill="white"/>
<path d="M21.5348 20.4939H26.0517C26.2497 20.4939 26.4102 20.6773 26.4102 20.9036C26.4102 21.1299 26.2497 21.3133 26.0517 21.3133H21.5348C21.3368 21.3133 21.1764 21.1299 21.1764 20.9036C21.1764 20.6773 21.3368 20.4939 21.5348 20.4939Z" fill="white"/>
<path fill-rule="evenodd" clip-rule="evenodd" d="M26.0525 20.231H21.5357C21.1606 20.231 20.9144 20.5661 20.9144 20.9035C20.9144 21.2409 21.1606 21.576 21.5357 21.576H26.0525C26.4276 21.576 26.6738 21.2409 26.6738 20.9035C26.6738 20.5661 26.4276 20.231 26.0525 20.231ZM26.0525 20.4938H21.5357C21.3377 20.4938 21.1772 20.6772 21.1772 20.9035C21.1772 21.1298 21.3377 21.3132 21.5357 21.3132H26.0525C26.2505 21.3132 26.411 21.1298 26.411 20.9035C26.411 20.6772 26.2505 20.4938 26.0525 20.4938Z" fill="white"/>
</svg>
