<svg width="36" height="36" viewBox="0 0 36 36" fill="none" xmlns="http://www.w3.org/2000/svg">
<circle cx="18" cy="18" r="18" fill="#FFA41C"/>
<path fill-rule="evenodd" clip-rule="evenodd" d="M16.8024 25.989C17.2814 26.0356 17.7613 26.059 18.2339 26.059C21.3155 26.059 24.1172 25.113 26.1529 23.5762C28.1886 22.0395 29.4678 19.9027 29.4678 17.5295C29.4678 15.1564 28.1886 13.0196 26.1529 11.4828C24.1172 9.94605 21.3155 9 18.2339 9C15.1523 9 12.3506 9.94605 10.3149 11.4828C8.2792 13.0196 7 15.1564 7 17.5295C7 20.4028 8.84249 23.0019 11.904 24.5813V28.8338C11.904 29.1588 12.1055 29.4476 12.4077 29.5691C12.5078 29.6093 12.613 29.6288 12.7167 29.6288C12.9264 29.6288 13.1335 29.5494 13.2896 29.3983L16.8024 25.989ZM16.6089 24.3676C17.1522 24.4349 17.6989 24.4691 18.2339 24.4691C20.9001 24.4691 23.3098 23.6793 25.0482 22.4139C26.7868 21.1483 27.8418 19.418 27.8418 17.5295C27.8418 15.641 26.7868 13.9107 25.0482 12.6451C23.3098 11.3797 20.9001 10.5899 18.2339 10.5899C15.5677 10.5899 13.158 11.3797 11.4196 12.6451C9.68099 13.9107 8.62599 15.641 8.62599 17.5295C8.62599 19.8761 10.2595 22.0696 13.0657 23.3722C13.3469 23.5027 13.5299 23.7808 13.5299 24.0903V26.9248L15.9334 24.592C16.1113 24.4191 16.3604 24.3357 16.6089 24.3676Z" fill="white"/>
<path fill-rule="evenodd" clip-rule="evenodd" d="M12.7017 15H22.9764C23.3966 15 23.6781 15.3947 23.6781 15.802C23.6781 16.2094 23.3966 16.6041 22.9764 16.6041H12.7017C12.2815 16.6041 12 16.2094 12 15.802C12 15.3947 12.2815 15 12.7017 15Z" fill="white"/>
<path fill-rule="evenodd" clip-rule="evenodd" d="M12.927 18.8H21.5646C21.9903 18.8 22.2914 19.185 22.2914 19.6021C22.2914 20.0192 21.9903 20.4041 21.5646 20.4041H12.927C12.5013 20.4041 12.2002 20.0192 12.2002 19.6021C12.2002 19.185 12.5013 18.8 12.927 18.8Z" fill="white"/>
</svg>
