<svg width="36" height="36" viewBox="0 0 36 36" fill="none" xmlns="http://www.w3.org/2000/svg">
<circle cx="18" cy="18" r="18" fill="#9EB0CB"/>
<path d="M24.5759 9.40936C24.8807 9.11035 25.298 8.925 25.7581 8.925C26.6898 8.925 27.4475 9.68268 27.4475 10.6144V22.4531C27.4475 23.3848 26.6898 24.1425 25.7581 24.1425C25.298 24.1425 24.8807 23.9571 24.5757 23.6579C24.5738 23.6565 24.5686 23.6526 24.5634 23.6474C23.3403 22.4243 21.1547 20.9042 18.991 20.2327L18.3884 21.4379C18.2974 21.6951 18.1935 21.8399 18.0672 21.916C17.944 21.9901 17.8119 21.99 17.6938 21.99L17.6861 21.99H16.2325L15.7627 24.8091C15.6194 25.6699 14.8814 26.295 14.0085 26.295C13.0277 26.295 12.23 25.4973 12.23 24.5165V19.8375H11.2288C9.407 19.8375 7.925 18.3555 7.925 16.5337C7.925 14.712 9.407 13.23 11.2288 13.23H16.61C17.1163 13.23 17.7667 13.0933 18.4862 12.8603C19.2046 12.6276 19.9871 12.3003 20.7558 11.9227C22.2952 11.1665 23.7707 10.2128 24.5636 9.41987C24.5688 9.41466 24.574 9.41077 24.5759 9.40936ZM24.5759 9.40936C24.576 9.4093 24.5761 9.40925 24.5761 9.40921L24.5764 9.40902C24.5772 9.40837 24.5776 9.40811 24.5776 9.40811C24.5776 9.40811 24.5762 9.40914 24.5749 9.41041L24.6259 9.46537L24.5759 9.40936ZM14.5531 24.6073L14.5531 24.6073C14.5086 24.875 14.2797 25.0688 14.0085 25.0688C13.704 25.0688 13.4563 24.8208 13.4563 24.5165V19.8375H15.3481L14.5531 24.6073ZM22.5872 12.3152C22.6208 12.299 22.6504 12.2846 22.6758 12.2722V20.7953C22.6504 20.7829 22.6208 20.7685 22.5872 20.7523C22.4608 20.6912 22.2786 20.604 22.0547 20.4993C21.6071 20.29 20.993 20.0109 20.3271 19.7318C19.6614 19.4527 18.9431 19.1731 18.2873 18.9632C17.6337 18.754 17.0344 18.6112 16.61 18.6112H16.0719H14.5325V14.4562H16.61C17.0344 14.4562 17.6337 14.3135 18.2873 14.1043C18.9431 13.8944 19.6614 13.6148 20.3271 13.3357C20.993 13.0566 21.6071 12.7775 22.0547 12.5682C22.2786 12.4635 22.4608 12.3763 22.5872 12.3152ZM25.7446 10.1681L25.7759 10.1516C26.0229 10.161 26.2213 10.3649 26.2213 10.6144V22.4531C26.2213 22.7085 26.0133 22.9163 25.7581 22.9163C25.707 22.9163 25.6434 22.893 25.5547 22.8298C25.4665 22.7669 25.3621 22.6709 25.23 22.5386C25.1374 22.4459 25.0311 22.335 24.9084 22.2072C24.6918 21.9815 24.4244 21.7028 24.092 21.3771V11.3105C24.4005 11.008 24.8182 10.7195 25.1646 10.504C25.3414 10.394 25.4986 10.3036 25.6116 10.2407C25.668 10.2093 25.7134 10.1848 25.7446 10.1681ZM11.2288 18.6112C10.0833 18.6112 9.15125 17.6792 9.15125 16.5337C9.15125 15.3883 10.0833 14.4562 11.2288 14.4562H13.1795V16.5337V18.6112H11.2288ZM17.7765 19.9491L17.2261 20.7638H16.437L16.5913 19.8375H16.61C16.7029 19.8375 16.9646 19.8599 17.2367 19.8877C17.4373 19.9082 17.6392 19.9311 17.7765 19.9491Z" fill="white" stroke="white" stroke-width="0.15"/>
<path d="M11.2287 18.6862C10.0418 18.6862 9.07617 17.7206 9.07617 16.5337C9.07617 15.3468 10.0418 14.3812 11.2287 14.3812H13.2544V16.5337V18.6862H11.2287ZM14.627 24.6195C14.5765 24.9235 14.3162 25.1437 14.0084 25.1437C13.6625 25.1437 13.3812 24.8621 13.3812 24.5164V19.7624H15.4366L14.627 24.6195ZM17.2659 20.8387H16.3484L16.5277 19.7624H16.6099C16.8052 19.7624 17.6743 19.8543 17.9057 19.8916L17.2659 20.8387ZM22.7508 20.9155C22.7508 20.9155 18.2571 18.6862 16.6099 18.6862H16.0718H14.4574V14.3812H16.6099C18.2571 14.3812 22.7508 12.1518 22.7508 12.1518V20.9155ZM26.2962 22.453C26.2962 22.7499 26.0547 22.9912 25.7581 22.9912C25.4614 22.9912 25.0853 22.453 24.0169 21.4085V11.2791C24.65 10.646 25.7581 10.0762 25.7581 10.0762C26.0547 10.0762 26.2962 10.3175 26.2962 10.6143V22.453Z" fill="#9EB0CB"/>
</svg>
