<svg width="37" height="37" viewBox="0 0 37 37" fill="none" xmlns="http://www.w3.org/2000/svg">
<path fill-rule="evenodd" clip-rule="evenodd" d="M36.5625 18.5681C36.5625 28.5092 28.5036 36.5681 18.5625 36.5681C8.62137 36.5681 0.5625 28.5092 0.5625 18.5681C0.5625 8.62699 8.62137 0.568115 18.5625 0.568115C28.5036 0.568115 36.5625 8.62699 36.5625 18.5681ZM20.7852 9.79037C20.7852 8.56502 19.7882 7.56812 18.5629 7.56812C17.3375 7.56812 16.3406 8.56502 16.3406 9.79037C16.3406 11.0157 17.3375 12.0126 18.5629 12.0126C19.7882 12.0126 20.7852 11.0157 20.7852 9.79037ZM17.4518 9.79037C17.4518 9.17769 17.9502 8.67924 18.5629 8.67924C19.1756 8.67924 19.674 9.17769 19.674 9.79037C19.674 10.403 19.1756 10.9015 18.5629 10.9015C17.9502 10.9015 17.4518 10.403 17.4518 9.79037ZM27.4509 12.0123C27.4509 13.2376 26.454 14.2346 25.2287 14.2346C24.0033 14.2346 23.0064 13.2376 23.0064 12.0123C23.0064 10.7869 24.0033 9.79004 25.2287 9.79004C26.454 9.79004 27.4509 10.7869 27.4509 12.0123ZM26.3398 12.0123C26.3398 11.3996 25.8414 10.9012 25.2287 10.9012C24.616 10.9012 24.1176 11.3996 24.1176 12.0123C24.1176 12.625 24.616 13.1234 25.2287 13.1234C25.8414 13.1234 26.3398 12.625 26.3398 12.0123ZM11.8953 14.2346C13.1206 14.2346 14.1175 13.2376 14.1175 12.0123C14.1175 10.7869 13.1206 9.79004 11.8953 9.79004C10.6699 9.79004 9.673 10.7869 9.673 12.0123C9.673 13.2376 10.6699 14.2346 11.8953 14.2346ZM11.8953 10.9012C12.5079 10.9012 13.0064 11.3996 13.0064 12.0123C13.0064 12.625 12.5079 13.1234 11.8953 13.1234C11.2826 13.1234 10.7841 12.625 10.7841 12.0123C10.7841 11.3996 11.2826 10.9012 11.8953 10.9012ZM23.5627 15.3457H26.8961C27.8152 15.3457 28.5628 16.0932 28.5628 17.0123V20.9013C28.5628 21.2082 28.3141 21.4569 28.0072 21.4569H27.4517V27.0125C27.4517 27.3194 27.203 27.5681 26.8961 27.5681H23.5627C23.2558 27.5681 23.0071 27.3194 23.0071 27.0125V21.4569H21.896V27.0125C21.896 27.3194 21.6474 27.5681 21.3405 27.5681H15.7848C15.4779 27.5681 15.2293 27.3194 15.2293 27.0125V21.4569H14.1181V27.0125C14.1181 27.3194 13.8695 27.5681 13.5626 27.5681H10.2292C9.9223 27.5681 9.67363 27.3194 9.67363 27.0125V21.4569H9.11806C8.81117 21.4569 8.5625 21.2082 8.5625 20.9013V17.0123C8.5625 16.0932 9.31007 15.3457 10.2292 15.3457H13.5626C13.7577 15.3457 13.9441 15.381 14.1181 15.443V14.7901C14.1181 13.871 14.8657 13.1234 15.7848 13.1234H21.3405C22.2596 13.1234 23.0071 13.871 23.0071 14.7901V15.443C23.1812 15.381 23.3676 15.3457 23.5627 15.3457ZM13.5626 20.3457H14.1181V17.0123C14.1181 16.7061 13.8688 16.4568 13.5626 16.4568H10.2292C9.92296 16.4568 9.67363 16.7061 9.67363 17.0123V20.3457H10.2292C10.5361 20.3457 10.7848 20.5944 10.7848 20.9013V26.4569H13.007V20.9013C13.007 20.5944 13.2557 20.3457 13.5626 20.3457ZM21.896 20.3457V17.0123V14.7901C21.896 14.4839 21.6467 14.2345 21.3405 14.2345H15.7848C15.4786 14.2345 15.2293 14.4839 15.2293 14.7901V17.0123V20.3457H15.7848C16.0917 20.3457 16.3404 20.5944 16.3404 20.9013V26.4569H18.0071V22.568C18.0071 22.2611 18.2557 22.0124 18.5626 22.0124C18.8695 22.0124 19.1182 22.2611 19.1182 22.568V26.4569H20.7849V20.9013C20.7849 20.5944 21.0336 20.3457 21.3405 20.3457H21.896ZM26.8961 20.3457H27.4517V17.0123C27.4517 16.7061 27.2023 16.4568 26.8961 16.4568H23.5627C23.2565 16.4568 23.0071 16.7061 23.0071 17.0123V20.3457H23.5627C23.8696 20.3457 24.1183 20.5944 24.1183 20.9013V26.4569H26.3405V20.9013C26.3405 20.5944 26.5892 20.3457 26.8961 20.3457Z" fill="#0939E3"/>
</svg>
