<svg width="36" height="36" viewBox="0 0 36 36" fill="none" xmlns="http://www.w3.org/2000/svg">
<circle cx="18" cy="18" r="18" fill="#98C26E"/>
<path fill-rule="evenodd" clip-rule="evenodd" d="M26.0356 14.4583H28.0938C28.3291 14.4583 28.5489 14.5716 28.6892 14.7614C28.8292 14.9509 28.8745 15.1957 28.813 15.4236L26.0088 25.8157C25.9219 26.1379 25.6238 26.3756 25.2896 26.3756H9.58588C9.1758 26.3756 8.83984 26.0209 8.83984 25.613V10.6021C8.83984 10.186 9.16877 9.8396 9.58588 9.8396H16.316C16.5157 9.8396 16.706 9.92147 16.8453 10.0648L18.8699 12.149H25.2896C25.7067 12.149 26.0356 12.4954 26.0356 12.9115V14.4583ZM11.8497 15.0664C11.9172 14.8165 12.1382 14.6435 12.3901 14.6435H24.7287V13.4888H18.5594C18.4107 13.4888 18.268 13.4279 18.163 13.3198L16.0838 11.1795H10.1467V21.3772L11.8497 15.0664ZM24.8633 25.0357L27.3559 15.7982H12.8163L10.3237 25.0357H24.8633Z" fill="white"/>
</svg>
