<svg width="36" height="36" viewBox="0 0 36 36" fill="none" xmlns="http://www.w3.org/2000/svg">
<circle cx="18" cy="18" r="18" fill="#5D7FF6"/>
<path fill-rule="evenodd" clip-rule="evenodd" d="M14.3862 20.0929H12.6057L10.4789 22.1312C10.3384 22.2656 10.1537 22.3347 9.96857 22.3347C9.8767 22.3347 9.78334 22.3176 9.69443 22.2824C9.426 22.1758 9.23971 21.9188 9.23971 21.622V20.0929H8.40918C7.59082 20.0929 6.90039 19.4519 6.90039 18.6328V11.16C6.90039 10.3409 7.59082 9.69995 8.40918 9.69995H20.1058C20.9241 9.69995 21.6146 10.3409 21.6146 11.16V14.4826H27.5916C28.41 14.4826 29.1004 15.1235 29.1004 15.9426V23.4154C29.1004 24.2345 28.41 24.8755 27.5916 24.8755H26.7611V26.4046C26.7611 26.7014 26.5749 26.9584 26.3065 27.065C26.2176 27.1002 26.1241 27.1173 26.0322 27.1173C25.8471 27.1173 25.6624 27.0482 25.5219 26.9139L23.3951 24.8755H15.895C15.0766 24.8755 14.3862 24.2345 14.3862 23.4154V20.0929ZM14.4107 15.6782H10.1247C9.69273 15.6782 9.39566 16.0519 9.39566 16.4444C9.39566 16.8369 9.69273 17.2105 10.1247 17.2105H14.3862V18.6673H12.308C12.1194 18.6673 11.9355 18.7389 11.7977 18.871L10.6977 19.9251V19.3801C10.6977 18.9725 10.3572 18.6673 9.96873 18.6673H8.40918C8.3698 18.6673 8.35842 18.6401 8.35842 18.6328V11.16C8.35842 11.1527 8.3698 11.1255 8.40918 11.1255H20.1058C20.1202 11.1255 20.1278 11.1299 20.135 11.1398C20.1447 11.1532 20.1565 11.1825 20.1565 11.2347V14.4826H15.895C15.1671 14.4826 14.5404 14.9897 14.4107 15.6782ZM10.1061 12.6891H18.2752C18.7119 12.6891 18.9856 13.0797 18.9856 13.4552C18.9856 13.8308 18.7119 14.2214 18.2752 14.2214H10.1061C9.66941 14.2214 9.39566 13.8308 9.39566 13.4552C9.39566 13.0797 9.66941 12.6891 10.1061 12.6891ZM25.403 24.1627C25.403 23.8148 25.6943 23.5499 26.0321 23.5499H27.5916C27.6842 23.5499 27.7424 23.4799 27.7424 23.4154V15.9426C27.7424 15.8782 27.6842 15.8081 27.5916 15.8081H15.895C15.8024 15.8081 15.7442 15.8782 15.7442 15.9426V23.4154C15.7442 23.4799 15.8024 23.5499 15.895 23.5499H23.6927C23.8563 23.5499 24.0152 23.612 24.1339 23.7258L25.403 24.9421V24.1627ZM17.7256 17.4717H25.8947C26.3314 17.4717 26.6051 17.8623 26.6051 18.2378C26.6051 18.6134 26.3314 19.004 25.8947 19.004H17.7256C17.2889 19.004 17.0152 18.6134 17.0152 18.2378C17.0152 17.8623 17.2889 17.4717 17.7256 17.4717ZM20.4177 20.4608H25.8761C26.308 20.4608 26.6051 20.8345 26.6051 21.227C26.6051 21.6195 26.308 21.9931 25.8761 21.9931H20.4177C19.9857 21.9931 19.6887 21.6195 19.6887 21.227C19.6887 20.8345 19.9857 20.4608 20.4177 20.4608Z" fill="white"/>
</svg>
