<svg width="36" height="36" viewBox="0 0 36 36" fill="none" xmlns="http://www.w3.org/2000/svg">
<path fill-rule="evenodd" clip-rule="evenodd" d="M18 36C27.9411 36 36 27.9411 36 18C36 8.05887 27.9411 0 18 0C8.05887 0 0 8.05887 0 18C0 27.9411 8.05887 36 18 36ZM26.3264 9.05665C26.0641 8.84342 25.7572 8.80482 25.47 8.90055L25.4606 8.9031L7.67816 16.5926L7.67663 16.5932C7.14171 16.8171 6.84961 17.3442 6.84961 17.8836C6.84961 18.4769 7.25783 18.9509 7.79832 19.1215L13.8295 21.2714L14.0981 26.1145C14.104 26.4841 14.3482 26.7512 14.6747 26.8891L14.6799 26.8913C14.7267 26.9111 14.7675 26.9283 14.8349 26.9404C14.8893 26.9502 14.9406 26.95 14.9674 26.95L14.9725 26.9499C15.2325 26.9499 15.4335 26.8703 15.621 26.6829L18.0261 24.0174L21.4601 26.4041C21.6873 26.5813 21.9572 26.667 22.2506 26.667C22.8919 26.667 23.4636 26.2346 23.5953 25.5775L26.6497 9.89514L26.6513 9.88585C26.7024 9.58323 26.5917 9.27225 26.3264 9.05665ZM23.7863 11.0496L14.4354 19.9277L8.32712 17.8516L23.7863 11.0496ZM17.1497 22.9843L15.4179 24.8748L15.2605 21.6621L17.1497 22.9843ZM15.6 20.491L25 11.4605L22.2199 25.2524L15.6 20.491Z" fill="#3BC362"/>
</svg>
