<svg width="36" height="36" viewBox="0 0 36 36" fill="none" xmlns="http://www.w3.org/2000/svg">
<path fill-rule="evenodd" clip-rule="evenodd" d="M18 36C27.9411 36 36 27.9411 36 18C36 8.05887 27.9411 0 18 0C8.05887 0 0 8.05887 0 18C0 27.9411 8.05887 36 18 36ZM26.6468 9.27857C26.8044 9.11199 27.0278 9.00961 27.2564 9.00093C27.6088 8.98358 27.9614 9.19968 28.1068 9.52243C28.2523 9.84518 28.1813 10.253 27.9354 10.5072C26.7201 11.7814 24.9711 13.6704 23.2145 15.5677C21.4366 17.4879 19.651 19.4164 18.4032 20.7244C18.1061 21.0411 17.5632 21.0862 17.2185 20.8216L13.45 17.9341C13.0802 17.6504 13.0006 17.0552 13.2837 16.6847C13.5669 16.3142 14.1609 16.2344 14.5307 16.5181L17.655 18.9127C18.8281 17.6723 20.347 16.0344 21.8718 14.3901C23.629 12.4952 25.394 10.5918 26.6468 9.27857ZM10 24.1115V10.7848C10.0095 10.4099 10.3767 9.90846 10.8867 9.89631H21.9707C22.4392 9.88938 22.8704 10.3154 22.8704 10.7848C22.8704 11.2542 22.4392 11.6802 21.9707 11.6732H11.7734V23.2231H23.3008V17.8924C23.2939 17.423 23.719 16.9909 24.1875 16.9909C24.656 16.9909 25.0811 17.423 25.0742 17.8924V24.1115C25.0742 24.5766 24.6516 25 24.1875 25H10.8867C10.4226 25 10 24.5766 10 24.1115Z" fill="#F9B234"/>
</svg>
